<?xml version="1.0" standalone="no"?>
<!DOCTYPE svg PUBLIC "-//W3C//DTD SVG 20010904//EN"
 "http://www.w3.org/TR/2001/REC-SVG-20010904/DTD/svg10.dtd">
<svg version="1.0" xmlns="http://www.w3.org/2000/svg"
 width="1024.000000pt" height="1024.000000pt" viewBox="0 0 1024.000000 1024.000000"
 preserveAspectRatio="xMidYMid meet">
<metadata>
Created by potrace 1.14, written by Peter Selinger 2001-2017
</metadata>
<g transform="translate(0.000000,1024.000000) scale(0.100000,-0.100000)"
fill="#000000" stroke="none">
<path d="M3928 10235 c-1 -1 -41 -5 -88 -9 -107 -8 -172 -16 -181 -22 -4 -2
-6 -14 -3 -27 2 -12 7 -42 10 -67 2 -25 7 -56 10 -70 2 -14 7 -40 9 -59 3 -19
8 -48 11 -65 3 -17 7 -44 10 -61 3 -16 7 -43 9 -60 3 -16 7 -48 10 -70 3 -22
14 -87 24 -145 l18 -104 -1081 -1083 c-924 -926 -1081 -1088 -1080 -1111 1
-38 13 -162 19 -192 6 -39 18 -151 19 -192 0 -21 3 -38 6 -38 3 0 6 -17 7 -38
1 -20 5 -66 9 -102 4 -36 8 -80 8 -97 1 -18 4 -33 7 -33 3 0 6 -8 6 -17 -1
-102 -5 -96 96 -156 222 -132 369 -217 378 -217 5 0 9 -4 9 -9 0 -5 8 -11 18
-14 9 -3 40 -20 67 -36 28 -17 68 -40 90 -53 22 -12 48 -27 57 -33 54 -33 111
-65 113 -63 2 2 17 32 34 68 59 126 162 253 291 360 23 19 54 45 69 58 14 13
51 42 81 65 30 22 57 43 60 47 5 5 38 29 157 113 29 20 57 37 62 37 5 0 14 7
21 15 6 8 74 51 151 97 191 114 224 132 304 173 39 20 106 55 151 78 44 23 85
43 90 45 5 2 43 19 84 38 177 83 226 104 243 104 8 0 20 7 27 15 6 8 15 14 18
13 4 0 10 1 15 2 4 1 10 3 15 5 4 1 20 7 35 13 16 7 34 12 41 12 6 0 17 5 24
12 7 7 12 9 12 5 0 -4 8 -3 18 2 20 11 72 22 72 16 0 -2 -6 -10 -13 -17 -7 -7
-33 -40 -57 -73 -25 -33 -51 -66 -58 -74 -7 -7 -32 -40 -55 -74 -23 -33 -57
-81 -75 -106 -18 -25 -60 -91 -94 -146 -34 -55 -66 -101 -70 -103 -4 -2 -8
-10 -8 -18 0 -7 -7 -22 -17 -33 -19 -23 -85 -140 -109 -193 -9 -21 -20 -38
-25 -38 -5 0 -9 -5 -9 -11 0 -6 -31 -74 -68 -152 -189 -390 -345 -846 -426
-1242 -26 -126 -35 -175 -40 -205 -3 -19 -8 -46 -11 -60 -3 -14 -8 -41 -10
-60 -2 -19 -6 -48 -9 -65 -3 -16 -8 -50 -11 -75 -3 -25 -7 -61 -10 -80 -42
-330 -51 -856 -20 -1160 19 -190 19 -179 -6 -189 -67 -25 -103 -126 -83 -230
4 -17 23 -50 44 -74 l38 -42 239 0 c192 0 237 -3 227 -13 -7 -6 -22 -12 -33
-12 -12 0 -21 -4 -21 -10 0 -5 -6 -10 -14 -10 -8 0 -46 -16 -85 -35 -39 -19
-73 -35 -76 -35 -3 0 -31 -16 -64 -35 -33 -19 -64 -35 -70 -35 -6 0 -11 -3
-11 -8 0 -4 -13 -13 -28 -20 -31 -13 -240 -151 -283 -186 -15 -11 -39 -30 -54
-41 -16 -11 -33 -24 -39 -30 -6 -5 -38 -32 -71 -60 -142 -119 -330 -321 -446
-478 -33 -45 -67 -90 -75 -100 -8 -9 -14 -22 -14 -27 0 -6 -4 -10 -10 -10 -5
0 -10 -4 -10 -10 0 -5 -20 -40 -44 -77 -41 -64 -147 -265 -180 -343 -37 -87
-65 -159 -80 -210 -10 -30 -20 -62 -23 -70 -7 -18 -4 -6 -41 -145 l-29 -110
-109 0 c-60 -1 -125 -5 -144 -9 -76 -19 -157 -93 -179 -165 -21 -71 -9 -165
26 -199 7 -7 13 -17 13 -21 0 -18 100 -79 145 -90 36 -8 942 -10 3290 -8
l3240 2 46 23 c62 30 94 61 123 118 30 59 31 139 4 198 -23 47 -75 106 -95
106 -7 0 -13 4 -13 8 0 19 -82 35 -193 38 -65 1 -121 4 -123 7 -3 3 -12 34
-20 68 -8 35 -19 78 -24 94 -5 17 -19 62 -31 100 -12 39 -24 75 -28 80 -3 6
-7 19 -8 30 -2 11 -8 24 -13 29 -6 6 -10 16 -10 24 0 8 -11 36 -25 63 -13 27
-22 49 -20 49 7 0 -134 271 -166 318 -16 24 -29 45 -29 48 0 7 -91 137 -157
224 -20 27 -127 154 -158 189 -100 111 -299 293 -410 373 -5 4 -24 19 -41 33
-18 14 -36 25 -42 25 -6 0 -12 4 -14 8 -1 5 -37 30 -78 57 -41 26 -87 56 -102
66 -15 11 -34 19 -43 19 -8 0 -15 4 -15 9 0 13 -343 181 -369 181 -6 0 -11 3
-11 8 0 4 98 7 218 6 229 0 259 3 291 33 43 40 74 168 48 201 -5 6 -6 12 -3
12 14 0 -36 75 -62 94 -21 16 -42 20 -109 20 -79 0 -83 1 -77 20 11 34 35 66
50 66 8 0 14 5 14 11 0 5 4 8 9 5 5 -3 11 1 15 9 3 8 10 15 17 15 6 0 23 10
38 23 15 12 40 31 55 42 91 66 241 217 361 362 6 7 15 18 21 26 27 32 163 237
191 287 84 152 112 208 106 213 -3 4 -1 7 5 7 6 0 14 10 18 23 6 21 28 74 59
143 23 49 104 292 126 374 11 41 24 89 29 105 5 17 12 44 15 60 2 17 7 41 11
55 7 29 10 43 34 175 11 55 22 125 25 155 3 30 8 62 10 70 6 27 22 204 32 360
13 203 5 816 -12 928 -3 18 -8 66 -11 105 -2 40 -7 92 -10 117 -3 25 -6 59 -8
75 -8 72 -17 144 -20 161 -2 11 -7 44 -11 74 -9 75 -16 118 -21 144 -3 11 -11
57 -19 101 -8 44 -17 89 -20 100 -2 11 -11 50 -19 88 -42 191 -139 484 -213
647 -54 119 -109 229 -153 305 -26 44 -53 91 -61 105 -8 14 -17 27 -20 30 -3
3 -27 39 -54 80 -28 41 -52 77 -55 80 -3 3 -32 39 -65 80 -33 41 -73 90 -90
109 -43 50 -227 231 -267 264 -18 15 -44 37 -58 48 -59 51 -208 159 -217 159
-6 0 -14 7 -17 16 -3 8 -10 13 -15 10 -5 -3 -14 1 -21 9 -29 34 -331 195 -490
260 -36 14 -78 32 -95 40 -137 60 -551 175 -720 199 -22 3 -47 7 -55 9 -8 2
-37 7 -65 11 -27 4 -63 9 -80 12 -62 9 -129 17 -255 29 -53 6 -667 15 -672 10z"/>
</g>
</svg>
