<svg width="778" height="777" viewBox="0 0 778 777" fill="none" xmlns="http://www.w3.org/2000/svg">
<g style="mix-blend-mode:overlay">
<path d="M531.536 671.3L531.144 670.482L532.641 669.457L528.462 661.106L528.129 663.869L526.224 672.118L526.407 672.574L527.967 672.076L528.359 672.894L523.761 675.227L523.37 674.409L524.625 673.523L519.479 663.079L518.014 663.603L517.623 662.785L522.315 660.477L522.707 661.295L521.356 662.156L525.605 670.628L525.887 668.055L527.843 659.616L527.495 659.013L525.815 659.582L525.423 658.764L530.115 656.456L530.507 657.274L529.156 658.134L534.303 668.579L535.742 668.149L536.134 668.967L531.536 671.3Z" fill="#313131"/>
<path d="M520.16 676.502C519.653 676.876 519.291 677.084 518.93 677.293C518.568 677.502 518.207 677.71 517.871 677.824C516.476 678.469 515.278 678.759 514.302 678.599C513.326 678.44 512.642 677.951 512.206 676.917C511.84 676.004 511.758 675.168 512.082 674.338C512.407 673.508 512.99 672.85 513.739 672.337C512.705 672.773 511.774 672.829 510.918 672.6C510.089 672.276 509.525 671.717 509.133 670.899C508.558 669.625 508.528 668.598 508.998 667.604C509.468 666.609 510.508 665.767 512.144 664.984C512.842 664.661 513.514 664.434 514.04 664.371C514.592 664.213 515.118 664.151 515.428 664.132C515.739 664.113 515.954 664.069 516.049 664.095L517.047 667.214L516.229 667.606L514.736 665.576C514.045 665.493 513.278 665.695 512.244 666.131C511.452 666.428 511.014 666.922 510.836 667.587C510.657 668.252 510.764 668.994 511.131 669.907C511.453 670.604 511.921 671.137 512.561 671.41C513.201 671.684 514.038 671.602 515.071 671.166L516.225 670.661L516.687 671.599L515.653 672.035C515.197 672.218 514.81 672.522 514.397 672.921C514.08 673.345 513.858 673.795 513.73 674.27C513.698 674.771 513.735 675.392 513.988 675.969C514.285 676.761 514.779 677.199 515.349 677.352C515.919 677.505 516.566 677.373 517.358 677.076C517.84 676.797 518.297 676.614 518.589 676.285C518.881 675.956 519.052 675.696 519.103 675.506L518.75 673.782L519.809 673.251L521.15 675.851C521.029 675.92 520.668 676.129 520.16 676.502Z" fill="#313131"/>
<path d="M504.937 681.998L506.446 681.689L506.812 682.602L504.435 683.493C504.073 683.702 503.522 683.86 502.945 684.112C502.367 684.365 502.006 684.574 501.765 684.713C500.18 685.307 498.912 685.476 498.057 685.247C497.202 685.018 496.543 684.434 496.202 683.426C495.905 682.634 495.824 681.797 496.123 681.062C496.326 680.302 496.91 679.643 497.633 679.226C496.505 679.637 495.547 679.788 494.718 679.463C493.888 679.139 493.229 678.555 492.888 677.547C492.383 676.393 492.473 675.297 493.063 674.233C493.654 673.169 494.815 672.258 496.736 671.55C497.193 671.367 497.529 671.253 497.96 671.165C498.847 670.893 499.424 670.641 499.64 670.597L501.922 669.68L502.194 670.568L500.773 671.308L504.937 681.998ZM497.033 672.343C495.879 672.848 495.13 673.361 494.737 674.07C494.343 674.779 494.45 675.521 494.721 676.409C495.088 677.322 495.556 677.855 496.196 678.128C496.836 678.401 497.672 678.32 498.706 677.884C499.86 677.378 500.627 677.176 500.988 676.968L499.024 671.756C498.618 671.749 498.041 672.002 497.033 672.343ZM500.296 678.412L499.383 678.778C498.59 679.075 498.057 679.543 497.784 680.183C497.511 680.823 497.523 681.539 497.915 682.357C498.211 683.15 498.68 683.683 499.225 683.93C499.769 684.178 500.606 684.097 501.639 683.661C502.096 683.478 502.458 683.269 502.914 683.086L503.276 682.877L501.424 678.001C501.183 678.14 500.847 678.254 500.296 678.412Z" fill="#313131"/>
<path d="M490.099 688.717L488.178 689.425L479.768 678.616L478.595 678.811L478.324 677.923L483.028 676.332L483.3 677.219L481.905 677.864L483.607 680.255L488.768 678.481L488.72 675.616L487.117 675.899L486.845 675.012L491.093 673.603L491.364 674.491L490.305 675.022L490.099 688.717ZM488.112 686.25L489.067 687.626L488.93 685.858L488.773 679.602L484.284 681.15L488.112 686.25Z" fill="#313131"/>
<path d="M475.483 679.402C476.623 679.708 477.497 680.248 478.269 681.168C479.041 682.087 479.668 683.172 480.002 684.586C480.361 685.904 480.436 687.147 480.2 688.408C479.964 689.668 479.399 690.637 478.574 691.435C477.749 692.232 476.76 692.884 475.536 693.269C474.648 693.541 473.476 693.736 472.138 693.785L471.517 693.822L470.761 690.564L471.984 690.179L473.141 692.322C473.332 692.373 473.712 692.475 474.117 692.482C474.523 692.488 475.074 692.331 475.721 692.198C476.488 691.996 477.116 691.554 477.579 690.965C478.043 690.376 478.367 689.546 478.406 688.64C478.445 687.734 478.345 686.586 478.03 685.483C477.714 684.38 477.278 683.347 476.671 682.573C476.063 681.799 475.43 681.12 474.695 680.821C473.96 680.522 473.08 680.388 472.192 680.66C471.546 680.792 471.064 681.07 470.823 681.209C470.582 681.349 470.29 681.678 470.118 681.937L469.894 683.914L468.721 684.11L468.408 681.479C468.623 681.435 468.985 681.226 469.467 680.948C469.854 680.644 470.215 680.436 470.672 680.252C471.033 680.044 471.585 679.886 472.136 679.728C473.195 679.197 474.342 679.097 475.483 679.402Z" fill="#313131"/>
<path d="M461.396 693.962C461.021 694.982 460.456 695.951 459.777 696.584C458.977 697.286 458.134 697.773 457.177 697.924C455.979 698.214 454.882 698.124 453.957 697.775C453.033 697.425 452.184 696.79 451.507 695.896C450.83 695.001 450.299 693.942 450.06 692.554C449.751 691.045 449.702 689.708 449.912 688.542C450.148 687.281 450.714 686.312 451.443 685.489C452.173 684.666 453.112 684.205 454.215 683.889C455.413 683.599 456.535 683.594 457.555 683.969C458.575 684.344 459.328 684.954 460.031 685.753C460.708 686.647 461.239 687.706 461.478 689.095L464.4 688.452L463.177 683.133L461.599 683.321L461.422 682.459L466.431 681.255L466.607 682.117L465.142 682.641L467.816 693.951L469.274 693.832L469.45 694.694L464.563 695.829L464.386 694.967L465.851 694.443L464.716 689.555L461.768 690.293C461.792 691.725 461.676 692.916 461.396 693.962ZM459.329 694.834C459.755 693.624 459.757 692.097 459.29 690.036C458.842 688.287 458.198 686.892 457.305 686.041C456.412 685.191 455.393 684.816 454.099 685.08C452.901 685.371 452.197 686.099 451.796 687.214C451.396 688.328 451.463 689.976 451.93 692.037C452.378 693.786 452.928 695.156 453.82 696.006C454.687 696.952 455.733 697.232 456.836 696.916C458.103 696.747 458.903 696.044 459.329 694.834Z" fill="#313131"/>
<path d="M440.122 693.151C439.558 692.592 438.735 691.862 437.868 690.917C437.235 690.238 436.862 689.731 436.533 689.439C436.203 689.147 435.944 688.975 435.754 688.924L435.063 688.841L434.887 687.979L437.137 687.563C437.448 687.545 437.802 687.742 438.201 688.154C438.6 688.567 439.233 689.245 439.91 690.14C440.751 691.18 441.384 691.859 441.948 692.418C442.416 692.95 442.866 693.173 443.297 693.085L444.47 692.889L443.531 687.647L441.884 687.715L441.707 686.853L446.734 685.959L446.885 686.916L445.446 687.345L447.473 698.787L449 698.789L449.151 699.746L444.245 700.57L444.145 699.423L445.609 698.899L444.697 693.562L443.093 693.845L440.272 699.812L441.825 699.718L441.976 700.675L437.475 701.507L437.324 700.549L438.763 700.12L441.825 694.014C441.325 693.982 440.71 693.614 440.122 693.151Z" fill="#313131"/>
<path d="M431.767 688.977C432.762 689.447 433.49 690.151 434.021 691.21C434.577 692.174 434.963 693.398 435.202 694.786C435.441 696.174 435.3 697.461 434.874 698.671C434.473 699.786 433.813 700.729 433.014 701.432C432.119 702.109 431.181 702.57 429.913 702.74C427.999 703.042 426.383 702.609 425.256 701.492C424.13 700.375 423.32 698.834 423.095 696.635C422.881 695.152 423.022 693.865 423.423 692.75C423.849 691.54 424.483 690.692 425.308 689.894C426.203 689.217 427.236 688.781 428.409 688.586C429.677 688.417 430.773 688.507 431.767 688.977ZM432.54 699.777C433.061 698.592 433.253 697.116 433.002 695.012C432.795 693.123 432.246 691.753 431.404 690.713C430.562 689.672 429.542 689.297 428.37 689.492C427.197 689.687 426.328 690.269 425.807 691.454C425.286 692.638 425.069 694.21 425.345 696.219C425.552 698.108 426.102 699.478 426.969 700.423C427.741 701.343 428.735 701.813 430.003 701.644C431.125 701.639 432.019 700.961 432.54 699.777Z" fill="#313131"/>
<path d="M420.394 702.532L421.896 702.629L421.952 703.56L419.442 703.805C419.036 703.798 418.485 703.956 417.864 703.993C417.217 704.125 416.812 704.118 416.596 704.162C414.923 704.325 413.636 704.184 412.857 703.67C412.078 703.156 411.661 702.433 411.536 701.381C411.454 700.544 411.683 699.689 412.052 699.074C412.42 698.46 413.168 697.948 414.056 697.676C412.909 697.776 411.933 697.616 411.154 697.102C410.375 696.588 409.983 695.77 409.927 694.838C409.853 693.596 410.133 692.551 410.983 691.658C411.833 690.765 413.203 690.216 415.282 690.06C415.713 689.972 416.119 689.978 416.619 690.011C417.551 689.955 418.172 689.917 418.362 689.968L420.872 689.724L420.928 690.656L419.419 690.965L420.394 702.532ZM415.407 691.112C414.165 691.186 413.252 691.553 412.789 692.142C412.23 692.705 412.027 693.465 412.178 694.423C412.234 695.354 412.556 696.052 413.075 696.395C413.595 696.738 414.45 696.967 415.502 696.841C416.744 696.767 417.581 696.685 417.917 696.572L417.461 691.051C417.081 690.949 416.46 690.986 415.407 691.112ZM416.965 697.844L415.913 697.97C415.076 698.051 414.378 698.374 414.036 698.893C413.693 699.412 413.489 700.172 413.57 701.009C413.652 701.846 413.879 702.518 414.398 702.861C414.918 703.203 415.678 703.407 416.73 703.282C417.161 703.193 417.662 703.226 418.118 703.043L418.549 702.954L418.112 697.744C417.801 697.763 417.491 697.782 416.965 697.844Z" fill="#313131"/>
<path d="M391.041 705.26L390.985 704.328L392.589 704.045L392.235 692.441L390.449 692.267L390.393 691.336L395.621 691.209L395.677 692.14L394.099 692.329L394.427 704.028L400.372 703.89L400.044 692.19L398.352 692.042L398.296 691.111L403.525 690.984L403.58 691.915L402.097 692.129L402.451 703.734L404.022 703.951L404.078 704.883L391.041 705.26Z" fill="#313131"/>
<path d="M386.633 692.06C387.482 692.695 388.184 693.494 388.595 694.623C389.031 695.656 389.201 696.924 389.224 698.356C389.153 699.763 388.917 701.024 388.326 702.088C387.736 703.152 387.006 703.975 386.042 704.532C385.078 705.088 383.975 705.404 382.853 705.409C380.92 705.4 379.476 704.708 378.47 703.521C377.489 702.24 377.015 700.585 377.005 698.342C376.982 696.909 377.338 695.579 377.929 694.515C378.52 693.451 379.275 692.533 380.239 691.976C381.203 691.42 382.306 691.104 383.523 691.125C384.74 691.145 385.785 691.425 386.633 692.06ZM385.879 702.858C386.565 701.82 386.972 700.299 387.006 698.271C386.989 696.433 386.681 694.925 386.055 693.84C385.428 692.756 384.459 692.19 383.243 692.17C382.026 692.15 381.062 692.706 380.376 693.745C379.691 694.783 379.258 696.399 379.224 698.427C379.215 700.36 379.454 701.748 380.175 702.858C380.801 703.942 381.77 704.507 382.987 704.528C384.16 704.333 385.098 703.871 385.879 702.858Z" fill="#313131"/>
<path d="M371.127 695.952C371.49 694.216 371.916 693.006 372.551 692.157C372.869 691.733 373.161 691.404 373.522 691.195C373.884 690.986 374.315 690.898 374.72 690.905C375.316 690.963 375.721 690.97 376.007 691.046L376.005 692.573C375.72 692.497 375.219 692.465 374.623 692.407C374.433 692.356 374.218 692.4 373.977 692.539C373.736 692.678 373.59 692.843 373.444 693.007C372.346 694.445 371.746 697.442 371.456 701.947L371.359 703.449L373.501 703.82L373.461 704.726L362.638 704.066L362.677 703.16L364.445 703.023L365.213 691.413L363.357 691.119L363.396 690.213L369.093 690.619L369.054 691.526L367.095 691.612L366.327 703.222L370.142 703.429L370.29 701.737C370.565 699.57 370.789 697.593 371.127 695.952Z" fill="#313131"/>
<path d="M359.249 702.649L360.769 703.056L360.635 703.937L351.13 702.918L351.203 699.984L352.299 700.074L352.627 701.893L357.246 702.52L357.835 697.279L354.762 696.965L354.355 698.486L353.353 698.421L353.783 694.156L354.784 694.221L354.852 695.869L357.9 696.278L358.471 690.727L353.179 690.328L351.973 692.551L350.883 692.055L351.749 688.824L362.04 689.952L361.906 690.833L360.378 690.831L359.249 702.649Z" fill="#313131"/>
<path d="M343.812 700.957L346.981 701.297L348.189 697.547L349.355 697.757L348.342 702.68L336.797 700.911L337.31 695.956L338.475 696.166L338.528 700.152L341.74 700.708L343.44 689.042L340.849 688.45L340.983 687.569L348.029 688.642L347.895 689.523L345.487 689.387L343.812 700.957Z" fill="#313131"/>
<path d="M330.483 691.784L331.363 691.918C331.699 691.804 332.112 691.405 332.455 690.886C332.798 690.367 333.381 689.708 333.896 688.929C334.41 688.15 334.873 687.562 335.191 687.137C335.508 686.713 335.749 686.574 335.939 686.625L338.461 687.097L338.327 687.978L337.585 688.085C337.37 688.129 337.154 688.173 336.862 688.502C336.596 688.736 336.158 689.23 335.695 689.819C335.085 690.572 334.622 691.161 334.209 691.56C333.772 692.054 333.41 692.262 332.954 692.446C333.758 692.865 334.321 693.423 334.644 694.121C334.966 694.818 335.047 695.655 334.888 696.631C334.601 698.082 333.941 699.025 333.028 699.392C332.02 699.733 330.777 699.807 329.136 699.469C328.756 699.368 328.376 699.266 327.806 699.113C327.236 698.96 326.76 698.833 326.475 698.756L323.858 698.259L323.993 697.378L325.589 697.501L327.834 686.083L326.149 685.529L326.283 684.649L331.707 685.695L331.573 686.575L329.786 686.402L328.893 691.256L330.483 691.784ZM327.94 698.232C328.51 698.385 328.985 698.512 329.365 698.614C330.341 698.774 331.057 698.762 331.66 698.414C332.262 698.066 332.631 697.452 332.816 696.381C332.975 695.405 332.894 694.569 332.451 693.941C332.008 693.313 331.394 692.944 330.444 692.69C329.468 692.53 328.802 692.352 328.492 692.371L327.395 697.984L327.94 698.232Z" fill="#313131"/>
<path d="M317.359 695.906L320.546 696.556L322.04 692.882L323.275 693.213L321.786 698.009L310.496 695.29L311.415 690.341L312.555 690.647L312.202 694.626L315.338 695.466L318.013 683.961L315.473 683.178L315.702 682.323L322.69 683.992L322.461 684.847L320.009 684.495L317.359 695.906Z" fill="#313131"/>
<path d="M305.355 680.264C306.153 681.088 306.589 682.122 306.784 683.295C306.979 684.467 306.838 685.754 306.456 687.179C306.099 688.51 305.388 689.643 304.563 690.441C303.713 691.333 302.654 691.864 301.551 692.18C300.353 692.47 299.257 692.38 298.021 692.049C297.071 691.794 296.076 691.324 294.822 690.683L294.278 690.435L295.428 687.28L296.664 687.611L296.433 689.994C296.572 690.235 296.832 690.406 297.186 690.603C297.541 690.8 298.086 691.048 298.656 691.201C299.416 691.404 300.132 691.392 300.899 691.191C301.572 690.963 302.32 690.451 302.834 689.672C303.444 688.918 303.914 687.924 304.219 686.784C304.525 685.643 304.71 684.572 304.68 683.546C304.649 682.519 304.378 681.631 303.96 680.908C303.543 680.185 302.859 679.696 301.909 679.442C301.243 679.264 300.768 679.136 300.363 679.129C299.957 679.123 299.621 679.236 299.38 679.375L298.161 680.882L297.072 680.387L298.234 677.948C298.52 678.024 298.925 678.031 299.426 678.064C299.926 678.096 300.332 678.103 300.738 678.109C301.143 678.116 301.713 678.269 302.284 678.422C303.519 678.753 304.583 679.344 305.355 680.264Z" fill="#313131"/>
<path d="M286.916 688.258L287.24 687.429L289.071 687.817L292.155 678.967L289.98 680.625L282.768 685.11L282.641 685.585L284.18 686.303L283.856 687.133L279.016 685.429L279.34 684.599L280.791 684.886L284.556 673.876L283.112 673.183L283.436 672.353L288.371 674.083L288.047 674.913L286.406 674.575L283.296 683.52L285.352 681.932L292.778 677.403L292.957 676.738L291.322 675.994L291.647 675.164L296.582 676.894L296.257 677.724L294.711 677.411L290.946 688.422L292.295 689.089L291.971 689.919L286.916 688.258Z" fill="#313131"/>
<path d="M267.823 681.207L269.476 676.557L270.686 676.983L269.788 680.715L273.531 682.329L277.892 671.377L274.909 669.966L275.233 669.137L282.062 671.781L281.738 672.611L279.742 672.076L275.527 682.864L277.301 683.849L276.976 684.678L267.823 681.207Z" fill="#313131"/>
<path d="M265.284 678.897L266.487 679.729L266.163 680.559L261.52 678.5L261.844 677.67L263.365 678.078L265.398 673.53L259.381 670.899L257.347 675.447L258.645 676.304L258.321 677.134L253.773 675.1L254.097 674.27L255.523 674.652L260.213 663.992L258.889 663.23L259.213 662.4L263.761 664.433L263.437 665.263L261.942 664.761L259.686 669.758L265.704 672.389L267.96 667.392L266.541 666.604L266.865 665.774L271.603 667.859L271.279 668.688L269.879 668.211L265.284 678.897Z" fill="#313131"/>
<path d="M247.572 672.012L245.774 671.123L247.482 657.524L246.539 656.864L246.958 656.06L251.36 658.258L250.941 659.062L249.445 658.56L248.992 661.392L253.844 663.813L255.836 661.698L254.443 660.816L254.862 660.011L258.815 661.987L258.395 662.791L257.28 662.391L247.572 672.012ZM247.817 668.818L247.479 670.459L248.647 669.143L253.019 664.61L248.807 662.463L247.817 668.818Z" fill="#313131"/>
<path d="M240.263 658.239C241.335 656.896 242.306 655.934 243.175 655.352C243.657 655.074 243.993 654.96 244.424 654.872C244.83 654.879 245.21 654.981 245.659 655.203C246.204 655.451 246.533 655.743 246.793 655.914L246.221 657.289C245.961 657.117 245.607 656.92 244.992 656.552C244.828 656.406 244.638 656.355 244.422 656.399C244.207 656.443 243.991 656.487 243.75 656.627C242.209 657.436 240.33 659.886 238.044 663.857L237.282 665.181L239.074 666.476L238.655 667.28L229.269 662.015L229.688 661.211L231.348 661.859L237.032 651.669L235.474 650.64L235.893 649.836L240.954 652.618L240.534 653.422L238.805 652.653L233.146 662.749L236.433 664.546L237.246 663.032C238.136 661.234 239.19 659.581 240.263 658.239Z" fill="#313131"/>
<path d="M212.214 651.538L212.728 650.759L214.362 651.502L220.566 641.655L219.224 640.582L219.738 639.803L224.342 642.768L223.828 643.547L222.288 642.829L216.085 652.677L217.427 653.75L216.913 654.528L212.214 651.538ZM225.027 653.138C223.728 652.28 222.956 651.36 222.615 650.352C222.274 649.344 222.459 648.273 223.171 647.14C223.907 645.911 224.897 645.26 226.069 645.065C227.242 644.87 228.477 645.201 229.801 645.963C229.966 646.109 230.156 646.16 230.32 646.306C230.485 646.452 230.65 646.598 230.84 646.648C231.429 647.112 231.948 647.455 232.372 647.772L234.544 649.169L234.03 649.948L232.586 649.255L226.382 659.103L227.534 660.125L227.02 660.903L222.486 658.059L223 657.28L224.729 658.049L227.034 654.388L225.027 653.138ZM230.37 647.643C230.205 647.497 229.945 647.325 229.496 647.103C228.622 646.563 227.766 646.334 226.999 646.536C226.232 646.738 225.579 647.276 224.918 648.219C224.379 649.093 224.175 649.854 224.377 650.621C224.579 651.388 225.117 652.041 225.991 652.581L227.644 653.635L231.002 648.322C230.794 647.96 230.629 647.814 230.37 647.643Z" fill="#313131"/>
<path d="M205.776 645.534L206.808 646.626L206.293 647.405L202.215 644.377L202.73 643.598L204.148 644.385L207.176 640.308L201.895 636.448L198.867 640.526L199.899 641.617L199.385 642.396L195.402 639.394L195.916 638.615L197.266 639.282L204.153 629.923L203.096 628.927L203.61 628.148L207.688 631.176L207.174 631.955L205.85 631.193L202.651 635.53L207.932 639.39L211.131 635.052L209.909 633.91L210.423 633.131L214.596 636.184L214.082 636.963L212.758 636.201L205.776 645.534Z" fill="#313131"/>
<path d="M189.938 635.077L188.362 633.738L192.946 620.809L192.174 619.889L192.758 619.23L196.621 622.302L196.011 623.056L194.713 622.199L193.689 624.878L197.951 628.363L200.411 626.781L199.285 625.664L199.868 625.006L203.307 627.761L202.723 628.419L201.659 627.828L189.938 635.077ZM190.943 632.087L190.32 633.652L191.722 632.601L196.936 629.109L193.263 626.088L190.943 632.087Z" fill="#313131"/>
<path d="M178.835 624.056L180.145 625.629L179.561 626.287L175.896 622.861L179.657 614.905L180.839 612.777L178.834 614.175L171.243 618.558L167.647 615.252L168.231 614.594L169.928 615.863L176.746 606.384L175.67 605.077L176.254 604.419L180.153 608.112L179.569 608.77L178.202 607.793L173.149 614.485L170.953 617.36L173.363 615.969L182.349 610.941L183.242 611.791L179.397 620.438L177.79 623.776L180.48 621.339L186.78 615.693L185.514 614.335L186.098 613.677L189.693 616.983L189.11 617.642L187.837 616.689L178.835 624.056Z" fill="#313131"/>
<path d="M162.507 610.106L161.076 608.603L167.201 596.391L166.549 595.402L167.228 594.769L170.652 598.334L169.973 598.967L168.701 598.015L167.297 600.593L171.146 604.476L173.746 603.136L172.765 601.854L173.444 601.221L176.564 604.4L175.885 605.033L174.942 604.373L162.507 610.106ZM163.892 607.218L163.079 608.732L164.62 607.922L170.277 605.058L166.922 601.613L163.892 607.218Z" fill="#313131"/>
<path d="M156.3 601.72L157.091 602.951L156.412 603.584L154.772 601.718C154.443 601.426 154.139 601.04 153.81 600.748C153.316 600.31 152.848 599.777 152.449 599.364C151.278 598.032 150.678 596.853 150.647 595.826C150.617 594.799 151.157 593.925 152.127 592.963C152.901 592.356 153.65 591.843 154.486 591.762C155.349 591.585 156.229 591.719 157.059 592.044C157.889 592.368 158.643 592.977 159.345 593.777C159.579 594.043 159.813 594.309 160.048 594.576C160.282 594.842 160.421 595.083 160.516 595.109L163.593 592.368L162.005 590.313L162.684 589.68L166.759 594.235L166.081 594.868L164.928 593.847L156.3 601.72ZM158.641 594.504C158.008 593.826 157.203 593.406 156.418 593.298C155.632 593.189 154.598 593.625 153.628 594.587C152.828 595.29 152.434 595.999 152.446 596.715C152.458 597.431 152.85 598.249 153.552 599.049C153.787 599.315 154.116 599.607 154.445 599.899C154.61 600.045 154.774 600.191 154.844 600.312L159.786 595.932C159.552 595.665 159.179 595.158 158.641 594.504Z" fill="#313131"/>
<path d="M156.6 583.874C156.795 585.047 156.61 586.118 156.019 587.182C155.524 588.271 154.648 589.259 153.582 590.196C152.516 591.132 151.362 591.638 150.19 591.833C149.017 592.028 147.8 592.008 146.711 591.512C145.596 591.111 144.652 590.451 143.81 589.411C143.203 588.637 142.551 587.647 141.951 586.468L141.698 585.891L144.381 583.86L145.153 584.78L143.643 586.616C143.687 586.831 143.705 587.142 143.889 587.598C144.097 587.96 144.376 588.442 144.749 588.949C145.287 589.603 145.901 589.971 146.661 590.175C147.422 590.378 148.258 590.297 149.146 590.026C150.034 589.754 150.998 589.198 151.917 588.425C152.837 587.653 153.542 586.925 154.081 586.051C154.621 585.177 154.945 584.348 154.959 583.536C154.973 582.725 154.676 581.933 154.163 581.184C153.79 580.677 153.366 580.359 153.037 580.067C152.707 579.776 152.422 579.699 152.112 579.718L150.216 580.33L149.564 579.341L151.854 578.019C152.018 578.165 152.348 578.457 152.772 578.774C153.196 579.092 153.551 579.289 153.88 579.58C154.209 579.872 154.513 580.259 155.007 580.697C155.969 581.668 156.5 582.727 156.6 583.874Z" fill="#313131"/>
<path d="M126.126 565.319L126.874 564.807L128.02 566.234L135.84 560.996L133.096 560.974L124.662 560.14L124.275 560.443L124.989 561.959L124.241 562.471L121.425 558.152L122.174 557.64L123.206 558.731L132.885 552.259L132.145 550.839L132.893 550.326L135.803 554.671L135.055 555.183L133.979 553.876L126.038 559.184L128.592 559.156L137.217 560.041L137.819 559.693L137.01 558.152L137.758 557.639L140.668 561.984L139.92 562.496L138.913 561.31L129.235 567.782L129.879 569.177L129.131 569.689L126.126 565.319Z" fill="#313131"/>
<path d="M119.503 554.683C119.104 554.271 118.8 553.884 118.471 553.592C118.142 553.3 118.028 552.964 117.794 552.697C117.029 551.372 116.618 550.243 116.588 549.217C116.557 548.19 117.046 547.506 118.01 546.949C118.854 546.462 119.716 546.286 120.571 546.515C121.426 546.744 122.11 547.233 122.743 547.912C122.187 546.948 121.941 545.965 122.17 545.11C122.399 544.255 122.888 543.571 123.636 543.058C124.746 542.337 125.919 542.142 126.939 542.517C127.959 542.893 128.946 543.768 129.946 545.36C130.294 545.963 130.641 546.565 130.799 547.117C130.957 547.668 131.14 548.125 131.254 548.461C131.368 548.797 131.412 549.012 131.386 549.107L128.476 550.467L127.989 549.623L129.759 547.958C129.747 547.242 129.45 546.45 128.868 545.581C128.451 544.858 127.862 544.394 127.266 544.337C126.671 544.279 125.808 544.455 124.965 544.942C124.337 545.385 123.899 545.879 123.626 546.519C123.448 547.184 123.624 548.046 124.206 548.915L124.927 550.025L124.058 550.607L123.502 549.643C123.223 549.161 122.894 548.869 122.47 548.552C122.046 548.234 121.57 548.107 121.07 548.075C120.569 548.042 120.018 548.2 119.415 548.548C118.692 548.966 118.349 549.485 118.197 550.055C118.139 550.651 118.271 551.297 118.689 552.02C118.967 552.502 119.271 552.889 119.625 553.086C119.954 553.378 120.24 553.454 120.455 553.41L122.135 552.842L122.787 553.831L120.421 555.438C120.231 555.387 119.997 555.121 119.503 554.683Z" fill="#313131"/>
<path d="M112.156 540.288L112.68 541.753L111.862 542.144L110.635 539.88C110.427 539.519 110.148 539.037 109.775 538.53C109.402 538.022 109.193 537.661 109.054 537.42C108.245 535.879 107.954 534.68 107.994 533.774C108.128 532.893 108.616 532.21 109.58 531.653C110.398 531.261 111.166 531.059 111.926 531.263C112.712 531.372 113.395 531.86 113.933 532.514C113.402 531.455 113.156 530.472 113.385 529.617C113.615 528.762 114.103 528.078 115.042 527.616C116.126 526.99 117.274 526.89 118.363 527.386C119.478 527.786 120.51 528.878 121.528 530.78C121.737 531.142 121.92 531.598 122.129 531.96C122.521 532.778 122.773 533.355 122.938 533.501L124.095 535.644L123.277 536.036L122.391 534.78L112.156 540.288ZM115.153 535.183L114.692 534.245C114.274 533.522 113.806 532.989 113.141 532.811C112.476 532.632 111.829 532.765 111.011 533.157C110.288 533.574 109.755 534.042 109.602 534.613C109.45 535.183 109.651 535.95 110.113 536.888C110.322 537.25 110.6 537.732 110.809 538.093L111.017 538.455L115.64 536.027C115.64 536.027 115.432 535.665 115.153 535.183ZM120.805 531.197C120.179 530.113 119.546 529.434 118.811 529.135C118.076 528.837 117.335 528.943 116.491 529.43C115.648 529.917 115.115 530.386 115.032 531.076C114.948 531.767 115.055 532.509 115.612 533.473C116.238 534.557 116.56 535.255 116.769 535.616L121.658 532.954C121.519 532.713 121.266 532.136 120.805 531.197Z" fill="#313131"/>
<path d="M103.655 526.398L102.732 524.521L112.345 514.874L112.029 513.771L112.847 513.379L115.016 517.831L114.198 518.223L113.337 516.872L111.18 518.84L113.532 523.748L116.403 523.295L115.905 521.736L116.723 521.344L118.613 525.313L117.795 525.705L117.143 524.716L103.655 526.398ZM105.819 524.024L104.486 525.195L106.211 524.842L112.454 523.969L110.355 519.638L105.819 524.024Z" fill="#313131"/>
<path d="M111.032 510.652C110.846 511.723 110.351 512.812 109.621 513.635C108.891 514.458 107.756 515.274 106.481 515.85C105.207 516.425 103.939 516.594 102.748 516.479C101.556 516.363 100.441 515.963 99.4979 515.303C98.5544 514.642 97.8077 513.627 97.3021 512.473C96.9356 511.56 96.6201 510.457 96.3554 509.164L96.2231 508.517L99.3934 507.33L99.899 508.484L97.8946 509.882C97.8437 510.072 97.8369 510.478 97.9251 510.909C98.0133 511.34 98.1711 511.891 98.4239 512.468C98.7463 513.166 99.1891 513.794 99.8985 514.188C100.608 514.581 101.368 514.785 102.3 514.729C103.231 514.673 104.309 514.453 105.463 513.947C106.497 513.511 107.461 512.954 108.26 512.252C109.06 511.549 109.548 510.866 109.777 510.01C110.102 509.18 110.02 508.344 109.628 507.526C109.376 506.949 109.097 506.467 108.863 506.2C108.629 505.934 108.395 505.667 108.015 505.565L105.987 505.531L105.671 504.428L108.283 503.804C108.422 504.045 108.631 504.406 108.935 504.793C109.238 505.18 109.567 505.472 109.776 505.834C109.985 506.195 110.263 506.677 110.516 507.254C111.022 508.408 111.217 509.581 111.032 510.652Z" fill="#313131"/>
<path d="M94.841 498.47C93.7701 498.285 92.7757 497.815 92.0222 497.206C91.2688 496.597 90.6868 495.728 90.3457 494.72C89.9351 493.591 89.8097 492.539 90.0898 491.493C90.3699 490.448 90.8146 489.549 91.614 488.846C92.4388 488.049 93.4028 487.492 94.6519 487.012C96.1165 486.488 97.3842 486.318 98.601 486.338C99.7923 486.454 100.907 486.855 101.756 487.489C102.604 488.124 103.281 489.019 103.717 490.052C104.128 491.181 104.228 492.328 104.043 493.399C103.858 494.47 103.318 495.343 102.493 496.141C101.668 496.939 100.679 497.59 99.4299 498.07L100.504 500.905L105.595 499.009L105.217 497.38L106.105 497.109L107.861 501.959L106.973 502.231L106.233 500.81L95.3784 504.828L95.6871 506.336L94.7995 506.608L93.018 501.853L93.9056 501.581L94.6454 503.002L99.4007 501.22L98.3268 498.386C97.1286 498.676 95.8863 498.751 94.841 498.47ZM93.7024 496.638C94.9378 496.969 96.5161 496.78 98.4627 495.978C100.168 495.314 101.399 494.524 102.18 493.511C102.96 492.497 103.145 491.427 102.735 490.298C102.324 489.169 101.476 488.535 100.335 488.229C99.1948 487.924 97.5911 488.207 95.6699 488.914C93.9643 489.578 92.7339 490.368 91.9786 491.287C91.1979 492.3 91.0383 493.275 91.4489 494.404C91.7389 495.602 92.562 496.332 93.7024 496.638Z" fill="#313131"/>
<path d="M93.0471 477.415C93.5359 476.731 94.1707 475.883 95.0465 474.895C95.6303 474.237 96.0682 473.743 96.3856 473.319C96.6775 472.989 96.7539 472.704 96.8048 472.514L96.793 471.798L97.6806 471.527L98.4068 473.758C98.5459 473.999 98.3235 474.449 98.0062 474.873C97.6633 475.392 97.0794 476.051 96.2546 476.848C95.3788 477.836 94.6745 478.564 94.2111 479.153C93.7478 479.742 93.6205 480.217 93.7341 480.553L94.0497 481.656L99.1597 480.071L98.9019 478.373L99.7895 478.101L101.33 482.996L100.442 483.267L99.7977 481.872L88.6901 485.313L88.9037 486.796L88.0161 487.067L86.5452 482.294L87.4328 482.022L88.0776 483.417L93.1876 481.832L92.6888 480.273L86.3979 478.282L86.6812 479.885L85.7936 480.157L84.4363 475.719L85.3239 475.447L85.9941 476.747L92.4241 478.98C92.3105 478.644 92.5837 478.004 93.0471 477.415Z" fill="#313131"/>
<path d="M96.0366 468.539C95.6614 469.559 95.0267 470.408 94.1322 471.085C93.2378 471.762 92.0583 472.363 90.7397 472.722C89.326 473.056 88.0837 473.131 86.9179 472.92C85.752 472.71 84.783 472.145 83.96 471.415C83.137 470.685 82.5804 469.721 82.2903 468.523C81.7729 466.653 81.9902 465.081 82.9679 463.714C83.92 462.441 85.3915 461.511 87.4772 460.949C88.8909 460.615 90.2282 460.566 91.3941 460.777C92.5599 460.987 93.6239 461.578 94.447 462.308C95.27 463.037 95.8266 464.001 96.1167 465.2C96.4067 466.398 96.4117 467.52 96.0366 468.539ZM85.3805 470.675C86.5905 471.101 88.1433 471.008 90.1086 470.516C91.9533 470.094 93.2788 469.328 94.1291 468.436C94.9794 467.543 95.285 466.403 94.9694 465.3C94.6793 464.102 93.8563 463.372 92.6463 462.946C91.4364 462.52 89.7885 462.587 87.8232 463.079C85.9785 463.502 84.653 464.267 83.8027 465.16C82.9524 466.052 82.6723 467.097 82.9624 468.296C83.468 469.45 84.2656 470.275 85.3805 470.675Z" fill="#313131"/>
<path d="M81.1863 458.958L81.2795 460.511L80.4174 460.688L79.8626 458.196C79.7744 457.765 79.6167 457.214 79.4589 456.662C79.3011 456.11 79.1178 455.654 79.0992 455.343C78.7463 453.619 78.7668 452.402 79.091 451.572C79.4152 450.743 80.1637 450.23 81.1463 449.984C82.0085 449.808 82.7942 449.916 83.529 450.215C84.2383 450.609 84.8017 451.167 85.1937 451.985C84.9036 450.787 84.9427 449.881 85.3619 449.077C85.7812 448.272 86.5296 447.76 87.4868 447.609C88.6849 447.319 89.8508 447.529 90.7688 448.285C91.7124 448.945 92.4522 450.365 92.8491 452.305C92.9373 452.736 93.0255 453.167 93.0187 453.573C93.1697 454.53 93.3274 455.081 93.3715 455.297L93.9517 457.693L93.0896 457.87L92.5653 456.405L81.1863 458.958ZM85.431 454.901L85.185 453.918C85.0086 453.056 84.6607 452.454 84.0464 452.085C83.5271 451.743 82.7414 451.634 81.8538 451.905C80.9917 452.082 80.3892 452.43 80.1414 452.974C79.8936 453.519 79.7849 454.305 80.0054 455.382C80.0936 455.814 80.1818 456.245 80.3651 456.701L80.4788 457.037L85.5565 455.953C85.6074 455.763 85.4937 455.427 85.431 454.901ZM91.8665 452.551C91.5764 451.353 91.1844 450.535 90.5006 450.046C89.9117 449.583 89.126 449.474 88.1433 449.72C87.1862 449.871 86.5582 450.314 86.3104 450.859C85.9676 451.378 85.9285 452.284 86.149 453.362C86.4391 454.56 86.6155 455.422 86.7292 455.758L92.1429 454.56C92.2193 454.275 92.087 453.629 91.8665 452.551Z" fill="#313131"/>
<path d="M74.7245 430.235L75.6817 430.084L76.1805 431.643L87.6664 429.832L87.6242 428.089L88.5813 427.938L89.4243 433.155L88.4671 433.306L88.0634 431.772L76.5775 433.583L77.5273 439.542L89.1083 437.756L89.066 436.013L90.0231 435.862L90.7711 441.053L89.8139 441.204L89.3847 439.765L77.8988 441.576L77.8715 443.199L76.9143 443.35L74.7245 430.235Z" fill="#313131"/>
<path d="M87.3564 424.147C86.9117 425.046 86.0869 425.844 85.1229 426.4C84.1589 426.957 82.9353 427.342 81.4775 427.46C80.0197 427.579 78.7333 427.438 77.6184 427.038C76.5035 426.637 75.5599 425.977 74.8829 425.082C74.2058 424.188 73.7698 423.154 73.6697 422.007C73.4629 420.118 73.8958 418.503 75.0125 417.376C76.1293 416.249 77.7399 415.56 79.9393 415.335C81.3971 415.216 82.6835 415.357 83.7984 415.758C84.9133 416.158 85.8568 416.819 86.6289 417.738C87.306 418.633 87.742 419.666 87.8421 420.814C87.9862 422.176 87.8011 423.247 87.3564 424.147ZM76.5121 424.704C77.6711 425.32 79.1731 425.417 81.252 425.261C83.1408 425.054 84.4849 424.6 85.5253 423.758C86.5402 423.011 87.0104 422.017 86.8408 420.749C86.7408 419.602 86.0637 418.707 84.9047 418.091C83.7456 417.475 82.1487 417.353 80.1648 417.534C78.276 417.741 76.8368 418.17 75.8915 419.037C74.8766 419.784 74.5014 420.804 74.671 422.072C74.7456 423.314 75.4226 424.208 76.5121 424.704Z" fill="#313131"/>
<path d="M81.4485 409.322C83.1405 409.47 84.4964 409.732 85.3958 410.176C85.8455 410.399 86.1747 410.691 86.4089 410.957C86.6176 411.319 86.7313 411.655 86.8195 412.086C86.8568 412.707 86.8499 413.113 86.7735 413.398L85.2903 413.611C85.2716 413.301 85.2785 412.895 85.2667 412.179C85.2225 411.963 85.1784 411.748 85.0138 411.602C84.8492 411.456 84.6846 411.31 84.425 411.139C82.9113 410.326 79.8379 410.011 75.2745 410.316L73.8167 410.435L73.7571 412.558L72.8254 412.614L72.1475 401.839L73.0792 401.783L73.432 403.508L85.0434 402.748L85.1217 400.936L86.0534 400.88L86.4585 406.591L85.5268 406.647L85.2249 404.732L73.6389 405.396L73.8371 409.218L75.485 409.151C77.8236 409.166 79.7565 409.175 81.4485 409.322Z" fill="#313131"/>
<path d="M73.2798 398.374L73.0624 399.945L72.1307 400.001L71.933 390.475L74.8741 390.143L74.9045 391.17L73.1293 391.713L73.0984 396.39L78.3271 396.263L78.2357 393.183L76.6642 392.965L76.6337 391.939L80.9307 391.868L80.9612 392.895L79.3574 393.178L79.3283 396.328L84.8676 396.182L84.5507 390.903L82.1562 389.955L82.4618 388.815L85.6997 389.275L85.8838 399.612L84.9521 399.668L84.7639 398.09L73.2798 398.374Z" fill="#313131"/>
<path d="M73.0638 382.834L73.1297 386.009L77.0074 386.743L76.9869 387.959L72.0061 387.541L72.2735 375.9L77.2867 375.817L77.2662 377.034L73.3425 377.612L73.1929 380.831L84.9553 381.029L85.1676 378.336L86.0739 378.375L85.907 385.46L85.0007 385.421L84.8516 382.937L73.0638 382.834Z" fill="#313131"/>
<path d="M80.4898 368.424L80.4507 369.331C80.6594 369.692 80.9886 369.984 81.6029 370.352C82.1222 370.695 82.8315 371.089 83.7309 371.534C84.6303 371.978 85.2447 372.347 85.6944 372.569C86.1441 372.791 86.3782 373.058 86.3273 373.248L86.1659 375.751L85.2596 375.712L85.1528 374.97C85.1087 374.755 84.9441 374.609 84.7099 374.342C84.3552 374.146 83.931 373.828 83.2471 373.339C82.4427 372.92 81.8539 372.457 81.3346 372.114C80.8154 371.771 80.5116 371.384 80.3029 371.023C79.9787 371.852 79.5153 372.441 78.7669 372.954C78.0439 373.371 77.2768 373.573 76.2755 373.508C74.7736 373.412 73.7792 372.941 73.2227 371.977C72.6661 371.013 72.4965 369.746 72.6188 368.149C72.6256 367.743 72.7275 367.363 72.7852 366.767C72.843 366.172 72.9703 365.697 72.9517 365.386L73.1641 362.693L74.0703 362.732L74.1635 364.285L85.7731 365.053L86.0413 363.291L86.9476 363.33L86.5924 368.837L85.6862 368.798L85.6694 366.96L80.6631 366.637L80.4898 368.424ZM73.7169 366.711C73.5641 367.282 73.5319 367.782 73.525 368.188C73.4605 369.189 73.5673 369.931 74.0357 370.464C74.504 370.997 75.1438 371.27 76.2401 371.36C77.2413 371.425 78.0085 371.223 78.6364 370.78C79.2644 370.337 79.4681 369.577 79.6277 368.601C79.6922 367.6 79.75 367.004 79.6618 366.573L73.9648 366.167L73.7169 366.711Z" fill="#313131"/>
<path d="M74.6614 355.964L74.4167 359.158L78.2181 360.177L78.1026 361.368L73.1285 360.544L74.3972 348.967L79.4035 349.29L79.2881 350.481L75.3712 350.654L74.911 353.892L86.5833 355.186L87.0808 352.569L87.9616 352.704L87.1735 359.826L86.2927 359.692L86.3337 357.258L74.6614 355.964Z" fill="#313131"/>
<path d="M88.7857 342.026C88.0559 342.849 87.0664 343.5 85.9633 343.816C84.8602 344.131 83.5229 344.181 82.167 343.919C80.8111 343.658 79.6011 343.232 78.683 342.476C77.765 341.721 76.9929 340.801 76.5823 339.673C76.1717 338.544 76.0717 337.397 76.3077 336.136C76.4673 335.16 76.7728 334.02 77.2939 332.835L77.5418 332.29L80.8238 332.966L80.5878 334.227L78.1288 334.281C77.9828 334.446 77.8114 334.705 77.589 335.155C77.3921 335.51 77.2394 336.08 77.1816 336.676C77.0729 337.461 77.1798 338.203 77.5022 338.9C77.8246 339.598 78.3879 340.156 79.2619 340.696C80.0408 341.21 81.0862 341.49 82.3471 341.726C83.5129 341.937 84.5397 341.907 85.5918 341.781C86.549 341.63 87.4621 341.264 88.1155 340.726C88.7689 340.188 89.1627 339.478 89.3223 338.503C89.4055 337.812 89.4378 337.311 89.4191 337.001C89.4005 336.69 89.2868 336.354 89.0781 335.993L87.4253 334.939L87.7308 333.798L90.2458 334.676C90.1694 334.961 90.2831 335.297 90.3459 335.823C90.4341 336.254 90.4018 336.755 90.49 337.186C90.5782 337.617 90.4509 338.092 90.3677 338.783C90.0366 340.018 89.541 341.108 88.7857 342.026Z" fill="#313131"/>
<path d="M78.5522 324.718L79.4329 324.852L79.2597 326.639L88.4152 328.583L86.4909 326.641L81.1372 320.012L80.662 319.885L80.1341 321.475L79.2533 321.341L80.2924 316.323L81.1731 316.457L81.0763 317.959L92.443 320.393L92.9455 318.898L93.8008 319.127L92.7363 324.241L91.881 324.012L92.0288 322.32L82.6832 320.325L84.538 322.146L89.9612 328.895L90.6264 329.074L91.1798 327.389L92.0606 327.523L90.9961 332.636L90.1153 332.502L90.2377 330.905L78.8709 328.47L78.3939 329.87L77.5131 329.736L78.5522 324.718Z" fill="#313131"/>
<path d="M83.1325 304.963L87.9352 306.046L87.6041 307.282L83.8401 306.884L82.6755 310.85L94.1305 313.716L95.1609 310.631L96.0162 310.86L94.2269 317.918L93.3716 317.689L93.7163 315.642L82.4514 312.827L81.752 314.677L80.8967 314.448L83.1325 304.963Z" fill="#313131"/>
<path d="M85.1132 302.132L84.4462 303.482L83.5908 303.252L85.1051 298.362L85.9604 298.591L85.743 300.162L90.5388 301.651L92.435 295.335L87.6392 293.846L86.9721 295.195L86.1168 294.966L87.6055 290.17L88.4609 290.399L88.269 291.876L99.3811 295.261L99.9531 293.886L100.808 294.115L99.3197 298.911L98.4644 298.682L98.7768 297.136L93.6008 295.545L91.7047 301.862L96.8806 303.452L97.4781 301.982L98.3334 302.212L96.8192 307.103L95.9639 306.873L96.2508 305.422L85.1132 302.132Z" fill="#313131"/>
<path d="M89.6476 283.689L90.3724 281.744L104.024 281.735L104.614 280.671L105.444 280.996L103.791 285.645L102.961 285.321L103.273 283.775L100.339 283.702L98.5585 288.827L100.844 290.56L101.537 289.116L102.367 289.44L100.936 293.64L100.106 293.316L100.316 292.15L89.6476 283.689ZM92.9179 283.649L91.2259 283.501L92.6887 284.504L97.6846 288.287L99.287 283.827L92.9179 283.649Z" fill="#313131"/>
<path d="M102.543 274.718C104.031 275.626 105.139 276.432 105.747 277.206C106.05 277.593 106.234 278.049 106.347 278.385C106.436 278.816 106.334 279.197 106.232 279.577C105.984 280.121 105.787 280.476 105.616 280.736L104.216 280.259C104.387 279.999 104.514 279.524 104.762 278.979C104.813 278.789 104.89 278.504 104.82 278.383C104.776 278.168 104.637 277.927 104.498 277.686C103.447 276.284 100.825 274.665 96.5812 273.018L95.2066 272.446L94.1967 274.315L93.3669 273.99L97.3779 263.963L98.2077 264.287L97.7494 265.998L108.512 270.307L109.35 268.699L110.18 269.023L108.038 274.357L107.208 274.032L107.717 272.132L96.955 267.822L95.5122 271.306L97.0768 271.929C99.2303 273.015 101.055 273.81 102.543 274.718Z" fill="#313131"/>
<path d="M105.553 258.921C106.22 257.572 106.975 256.654 108.009 256.218C109.042 255.782 110.044 255.847 111.228 256.368C112.482 257.009 113.375 257.86 113.665 259.058C113.981 260.161 113.84 261.447 113.172 262.797C113.122 262.987 112.976 263.151 112.925 263.341C112.779 263.506 112.728 263.696 112.556 263.956C112.188 264.57 111.94 265.115 111.692 265.659L110.676 267.933L109.871 267.514L110.374 266.019L99.7895 261.044L98.9324 262.342L98.128 261.923L100.333 257.115L101.137 257.535L100.558 259.315L104.441 261.17L105.553 258.921ZM105.556 245.986L106.36 246.406L105.807 248.091L116.296 253.04L117.204 251.552L118.008 251.971L115.657 256.944L114.853 256.524L115.406 254.839L104.917 249.89L104.009 251.378L103.205 250.959L105.556 245.986ZM111.726 263.631C111.872 263.467 111.974 263.087 112.171 262.732C112.616 261.833 112.655 260.926 112.358 260.134C112.061 259.341 111.403 258.757 110.408 258.287C109.509 257.842 108.603 257.803 107.931 258.031C107.233 258.353 106.675 258.916 106.23 259.816L105.461 261.545L111.168 264.195C111.409 264.056 111.581 263.796 111.726 263.631Z" fill="#313131"/>
<path d="M110.615 238.888L109.689 240.066L108.884 239.647L111.393 235.226L112.197 235.645L111.6 237.115L116.046 239.528L119.222 233.759L114.776 231.345L113.849 232.523L113.044 232.104L115.433 227.752L116.237 228.172L115.76 229.572L125.95 235.256L126.877 234.078L127.681 234.498L125.268 238.944L124.463 238.525L125.061 237.055L120.26 234.444L117.085 240.214L121.885 242.825L122.863 241.457L123.667 241.876L121.133 246.392L120.329 245.973L120.901 244.598L110.615 238.888Z" fill="#313131"/>
<path d="M119.039 221.894L120.119 220.147L133.481 223.116L134.237 222.198L135.016 222.712L132.368 226.892L131.589 226.377L132.281 224.933L129.43 224.169L126.56 228.799L128.408 231.025L129.455 229.778L130.234 230.292L127.904 234.048L127.125 233.534L127.621 232.444L119.039 221.894ZM122.131 222.519L120.516 222.086L121.712 223.324L125.832 228.094L128.334 224.079L122.131 222.519Z" fill="#313131"/>
<path d="M128.605 209.383L127.266 210.959L126.487 210.445L129.395 206.437L137.725 209.178L140.025 210.1L138.385 208.235L133.039 201.2L135.946 197.192L136.725 197.706L135.741 199.479L146.077 204.999L147.219 203.777L147.998 204.291L144.773 208.724L143.994 208.21L144.807 206.696L137.48 202.492L134.288 200.72L136.041 202.921L142.178 211.186L141.492 212.225L132.446 209.495L128.885 208.337L131.614 210.698L137.989 216.175L139.183 214.763L139.961 215.278L137.175 219.216L136.396 218.702L137.183 217.283L128.605 209.383Z" fill="#313131"/>
<path d="M140.313 191.538L141.557 189.936L154.512 194.426L155.337 193.628L156.09 194.237L153.018 198.1L152.265 197.49L153.122 196.192L150.443 195.168L147.053 199.455L148.66 201.821L149.777 200.694L150.53 201.303L147.776 204.741L147.022 204.132L147.613 203.068L140.313 191.538ZM143.329 192.447L141.764 191.825L142.814 193.226L146.306 198.44L149.233 194.742L143.329 192.447Z" fill="#313131"/>
<path d="M147.857 184.29L146.696 185.201L145.943 184.592L147.574 182.686C147.866 182.357 148.158 182.028 148.355 181.673C148.793 181.179 149.135 180.66 149.573 180.166C150.741 178.85 151.876 178.033 152.834 177.882C153.791 177.731 154.811 178.107 155.798 178.982C156.552 179.592 157.064 180.34 157.336 181.228C157.607 182.115 157.593 182.926 157.364 183.782C157.135 184.637 156.69 185.537 155.986 186.264C155.72 186.499 155.523 186.853 155.256 187.088C154.99 187.322 154.844 187.486 154.818 187.581L157.971 190.26L159.767 188.5L160.425 189.084L156.433 193.718L155.775 193.134L156.632 191.836L147.857 184.29ZM155.328 185.681C155.937 184.927 156.261 184.097 156.18 183.261C156.098 182.424 155.611 181.581 154.554 180.584C153.731 179.854 152.996 179.556 152.255 179.663C151.513 179.769 150.885 180.212 150.035 181.105C149.743 181.434 149.546 181.789 149.254 182.118C149.083 182.378 148.962 182.447 148.937 182.542L153.995 186.852C154.331 186.738 154.744 186.339 155.328 185.681Z" fill="#313131"/>
<path d="M165.694 182.346C164.59 182.662 163.494 182.572 162.354 182.266C161.239 181.866 160.175 181.275 159.118 180.279C158.155 179.308 157.409 178.293 157.024 177.07C156.613 175.941 156.634 174.724 156.844 173.558C157.15 172.418 157.645 171.328 158.591 170.461C159.295 169.733 160.094 169.031 161.325 168.24L161.832 167.867L164.13 170.316L163.28 171.208L161.177 169.932C160.961 169.976 160.625 170.09 160.264 170.299C159.902 170.507 159.49 170.906 159.078 171.305C158.519 171.868 158.22 172.603 158.137 173.294C158.029 174.079 158.23 174.846 158.597 175.76C158.989 176.578 159.666 177.472 160.559 178.322C161.356 179.147 162.325 179.712 163.224 180.157C164.124 180.602 165.005 180.736 165.841 180.655C166.678 180.573 167.401 180.156 168.08 179.523C168.518 179.029 168.835 178.605 169.007 178.345C169.178 178.085 169.28 177.705 169.261 177.395L168.433 175.543L169.353 174.771L171.011 176.947C170.865 177.111 170.668 177.466 170.42 178.011C170.198 178.461 170.001 178.815 169.804 179.17C169.607 179.525 169.29 179.949 168.852 180.443C167.786 181.379 166.702 182.005 165.694 182.346Z" fill="#313131"/>
<path d="M176.763 152.82L177.396 153.499L176.202 154.911L182.481 161.89L182.098 159.139L181.715 150.684L181.411 150.297L180.035 151.253L179.402 150.574L183.278 147.131L183.911 147.809L182.984 148.987L190.738 157.685L191.994 156.8L192.626 157.478L188.75 160.921L188.117 160.243L189.259 159.021L182.911 151.921L183.345 154.482L183.677 163.127L184.146 163.66L185.548 162.61L186.181 163.289L182.279 166.827L181.646 166.148L182.667 164.996L174.914 156.297L173.684 157.088L173.051 156.409L176.763 152.82Z" fill="#313131"/>
<path d="M186.443 144.821C186.761 144.397 187.078 143.973 187.37 143.644C187.662 143.314 187.929 143.08 188.195 142.846C189.381 141.84 190.535 141.334 191.493 141.183C192.45 141.032 193.254 141.451 193.957 142.251C194.564 143.025 194.861 143.817 194.727 144.698C194.593 145.579 194.294 146.314 193.685 147.067C194.579 146.39 195.492 146.024 196.373 146.158C197.279 146.197 197.988 146.591 198.596 147.365C199.438 148.405 199.753 149.508 199.568 150.579C199.383 151.65 198.577 152.758 197.15 153.903C196.617 154.372 196.014 154.719 195.532 154.998C195.05 155.276 194.594 155.459 194.258 155.573C193.922 155.687 193.706 155.731 193.681 155.826L191.865 153.098L192.639 152.491L194.57 154.027C195.217 153.895 196.035 153.503 196.834 152.8C197.487 152.262 197.856 151.648 197.818 151.027C197.807 150.311 197.579 149.638 196.877 148.839C196.434 148.211 195.82 147.843 195.129 147.76C194.438 147.676 193.646 147.973 192.751 148.65L191.711 149.492L191.008 148.693L191.808 147.99C192.195 147.686 192.512 147.262 192.734 146.812C192.957 146.363 193.084 145.888 193.021 145.361C192.959 144.835 192.68 144.353 192.307 143.846C191.769 143.193 191.25 142.85 190.629 142.887C190.008 142.924 189.43 143.177 188.803 143.62C188.39 144.019 188.098 144.348 187.806 144.677C187.514 145.006 187.533 145.317 187.577 145.532L188.386 147.073L187.467 147.846L185.498 145.688C185.739 145.549 186.031 145.22 186.443 144.821Z" fill="#313131"/>
<path d="M199.63 135.521L198.21 136.261L197.697 135.512L199.727 134.019C200.089 133.81 200.501 133.411 201.009 133.038C201.421 132.639 201.808 132.336 202.049 132.196C203.451 131.146 204.605 130.64 205.511 130.679C206.417 130.719 207.222 131.138 207.829 131.912C208.342 132.66 208.544 133.427 208.53 134.239C208.516 135.05 208.123 135.759 207.539 136.417C208.459 135.645 209.441 135.399 210.347 135.439C211.254 135.478 212.033 135.992 212.545 136.74C213.292 137.755 213.512 138.833 213.302 139.999C213.091 141.165 212.069 142.317 210.401 143.601C210.014 143.905 209.653 144.114 209.291 144.323C208.448 144.81 208.035 145.208 207.82 145.252L205.79 146.746L205.277 145.997L206.369 144.965L199.63 135.521ZM205.034 137.783L205.903 137.201C206.651 136.689 207.019 136.075 207.077 135.479C207.135 134.883 206.933 134.116 206.421 133.368C205.908 132.619 205.389 132.276 204.793 132.219C204.197 132.161 203.405 132.458 202.631 133.065C202.244 133.369 201.883 133.578 201.591 133.907L201.324 134.141L204.38 138.321C204.285 138.296 204.647 138.087 205.034 137.783ZM209.819 142.732C210.834 141.986 211.443 141.232 211.552 140.447C211.661 139.661 211.459 138.894 210.946 138.145C210.339 137.371 209.75 136.908 209.154 136.85C208.464 136.767 207.766 137.09 206.872 137.767C205.857 138.513 205.229 138.956 204.962 139.19L208.227 143.732C208.443 143.688 208.95 143.314 209.819 142.732Z" fill="#313131"/>
<path d="M212.191 125.136L213.929 123.971L224.865 132.198L225.924 131.667L226.436 132.415L222.332 135.186L221.82 134.438L223.006 133.432L220.746 131.604L216.16 134.653L216.949 137.411L218.369 136.671L218.882 137.419L215.165 139.887L214.653 139.138L215.478 138.341L212.191 125.136ZM214.857 126.97L213.515 125.898L214.083 127.578L215.819 133.645L219.777 131.039L214.857 126.97Z" fill="#313131"/>
<path d="M228.765 130.187C227.643 130.192 226.623 129.817 225.559 129.227C224.615 128.566 223.748 127.621 222.958 126.391C222.262 125.186 221.877 123.962 221.777 122.815C221.677 121.668 222.008 120.432 222.573 119.463C223.164 118.399 223.988 117.602 225.098 116.88C225.942 116.393 226.975 115.957 228.319 115.503L228.897 115.25L230.446 118.211L229.361 118.837L227.697 117.067C227.506 117.016 227.17 117.13 226.739 117.218C226.308 117.306 225.826 117.585 225.344 117.863C224.621 118.28 224.158 118.869 223.885 119.509C223.586 120.244 223.477 121.03 223.628 121.987C223.779 122.944 224.215 123.977 224.867 124.967C225.518 125.956 226.195 126.851 226.949 127.46C227.702 128.069 228.507 128.489 229.362 128.718C230.217 128.947 230.984 128.745 231.828 128.258C232.43 127.91 232.817 127.607 232.989 127.347C233.255 127.113 233.452 126.758 233.529 126.473L233.252 124.464L234.311 123.933L235.271 126.431C235.03 126.57 234.764 126.804 234.447 127.228C234.155 127.557 233.863 127.887 233.476 128.19C233.184 128.52 232.702 128.798 232.22 129.076C231.084 129.892 229.886 130.182 228.765 130.187Z" fill="#313131"/>
<path d="M238.514 112.429C238.604 111.332 238.884 110.287 239.424 109.413C239.964 108.539 240.642 107.906 241.606 107.35C242.691 106.724 243.769 106.503 244.77 106.568C245.771 106.632 246.791 107.007 247.614 107.737C248.437 108.467 249.209 109.387 249.93 110.497C250.696 111.822 251.055 113.141 251.13 114.383C251.204 115.625 251.019 116.696 250.454 117.665C249.889 118.634 249.185 119.362 248.221 119.919C247.136 120.545 246.058 120.765 244.962 120.675C243.961 120.611 242.941 120.236 242.092 119.601C241.244 118.966 240.377 118.021 239.776 116.841L237.151 118.277L239.743 123.046L241.233 122.426L241.625 123.244L237.097 125.698L236.705 124.88L237.961 123.994L232.454 113.759L230.989 114.283L230.502 113.439L234.909 111.055L235.396 111.899L234.141 112.785L236.525 117.192L239.245 115.782C238.714 114.723 238.493 113.645 238.514 112.429ZM240.277 111.17C240.136 112.456 240.54 113.99 241.584 115.798C242.488 117.364 243.399 118.525 244.558 119.141C245.717 119.757 246.719 119.822 247.898 119.221C248.957 118.69 249.522 117.721 249.543 116.504C249.563 115.287 249.16 113.753 248.211 111.971C247.307 110.405 246.395 109.244 245.331 108.653C244.267 108.063 243.171 107.973 242.112 108.504C241.053 109.035 240.418 109.883 240.277 111.17Z" fill="#313131"/>
<path d="M259.237 107.694C259.947 108.088 260.821 108.628 261.98 109.244C262.758 109.758 263.278 110.101 263.727 110.323C264.177 110.545 264.367 110.596 264.583 110.552L265.324 110.445L265.716 111.263L263.624 112.231C263.383 112.37 263.003 112.268 262.458 112.02C261.913 111.772 261.229 111.283 260.286 110.623C259.273 109.842 258.399 109.303 257.784 108.934C257.17 108.566 256.67 108.534 256.333 108.647L255.274 109.179L257.557 113.966L259.116 113.467L259.508 114.285L254.841 116.498L254.449 115.68L255.775 114.915L250.844 104.426L249.405 104.856L249.013 104.038L253.559 101.895L253.951 102.713L252.6 103.573L254.857 108.456L256.278 107.716L257.413 101.196L255.854 101.695L255.462 100.877L259.647 98.9422L260.039 99.7603L258.808 100.551L257.432 107.21C257.837 107.217 258.502 107.395 259.237 107.694Z" fill="#313131"/>
<path d="M268.444 109.448C267.373 109.263 266.499 108.723 265.701 107.898C264.904 107.073 264.157 106.059 263.607 104.689C263.058 103.319 262.768 102.121 262.883 100.93C262.999 99.7385 263.279 98.6932 263.939 97.7496C264.599 96.8061 265.494 96.1291 266.527 95.693C268.353 94.96 269.881 94.9619 271.325 95.6544C272.769 96.3469 273.914 97.7743 274.717 99.7209C275.267 101.09 275.531 102.384 275.416 103.575C275.3 104.766 274.995 105.907 274.334 106.85C273.674 107.794 272.78 108.471 271.746 108.907C270.567 109.508 269.514 109.633 268.444 109.448ZM264.843 99.3161C264.607 100.577 264.916 102.086 265.624 104.007C266.382 105.738 267.268 106.994 268.306 107.68C269.319 108.46 270.416 108.55 271.57 108.045C272.698 107.634 273.359 106.691 273.595 105.43C273.831 104.169 273.547 102.565 272.719 100.713C271.961 98.9824 271.075 97.7265 270.037 97.0408C268.998 96.3551 267.927 96.17 266.773 96.6756C265.714 97.2067 265.079 98.0552 264.843 99.3161Z" fill="#313131"/>
<path d="M275.802 93.3907L274.293 93.6994L274.022 92.8119L276.399 91.9211C276.83 91.8329 277.312 91.5546 277.889 91.3018C278.467 91.049 278.828 90.8403 279.139 90.8216C280.724 90.2278 281.991 90.0582 282.847 90.2874C283.702 90.5166 284.36 91.1004 284.701 92.1085C284.998 92.9011 285.08 93.7377 284.781 94.4725C284.482 95.2073 283.993 95.8912 283.27 96.3086C284.399 95.898 285.331 95.8421 286.186 96.0713C287.041 96.3005 287.674 96.9793 288.015 97.9874C288.426 99.116 288.405 100.333 287.84 101.302C287.25 102.366 285.994 103.252 284.073 103.959C283.616 104.142 283.28 104.256 282.849 104.344C281.961 104.616 281.384 104.868 281.169 104.913L278.791 105.803L278.494 105.011L279.915 104.271L275.802 93.3907ZM280.418 97.072L281.426 96.731C282.218 96.4341 282.751 95.9658 283.024 95.326C283.298 94.6862 283.286 93.9701 282.894 93.152C282.597 92.3595 282.129 91.8266 281.584 91.5787C281.039 91.3309 280.203 91.4123 279.195 91.7533C278.738 91.9366 278.376 92.1453 277.92 92.3285L277.558 92.5372L279.41 97.4131C279.53 97.3435 279.866 97.2298 280.418 97.072ZM283.586 103.116C284.714 102.705 285.488 102.098 285.882 101.388C286.276 100.679 286.264 99.9627 285.923 98.9546C285.556 98.0415 285.088 97.5086 284.543 97.2608C283.903 96.9875 283.067 97.0689 282.033 97.5049C280.81 97.8901 280.112 98.2125 279.776 98.3261L281.741 103.538C282 103.709 282.672 103.482 283.586 103.116Z" fill="#313131"/>
<path d="M303.326 83.0427L303.597 83.9303L302.177 84.6701L305.522 95.7523L307.247 95.3994L307.518 96.287L302.529 97.8021L302.257 96.9145L303.652 96.2697L300.237 85.0671L294.48 86.784L297.896 97.9867L299.62 97.6338L299.891 98.5214L294.902 100.036L294.63 99.1489L296.025 98.5041L292.68 87.422L291.076 87.7052L290.805 86.8176L303.326 83.0427Z" fill="#313131"/>
<path d="M311.126 94.6053C310.106 94.2302 309.258 93.5954 308.581 92.701C307.904 91.8066 307.398 90.6525 307.064 89.2389C306.73 87.8252 306.655 86.5829 306.891 85.322C307.102 84.1561 307.667 83.1872 308.397 82.3642C309.127 81.5411 310.091 80.9846 311.289 80.6945C313.159 80.177 314.73 80.3944 316.098 81.372C317.371 82.3242 318.301 83.7956 318.837 85.9764C319.171 87.3901 319.22 88.7274 319.01 89.8933C318.774 91.1542 318.208 92.1231 317.384 92.9207C316.559 93.7182 315.595 94.2748 314.492 94.5904C313.173 94.95 312.146 94.9805 311.126 94.6053ZM308.991 83.9493C308.565 85.1592 308.658 86.7121 309.15 88.6773C309.572 90.5221 310.337 91.8475 311.23 92.6978C312.123 93.5482 313.263 93.8537 314.366 93.5382C315.564 93.2481 316.269 92.5201 316.72 91.2151C317.146 90.0051 317.078 88.3572 316.586 86.392C316.164 84.5472 315.399 83.2218 314.506 82.3715C313.614 81.5212 312.568 81.2411 311.37 81.5311C310.216 82.0368 309.391 82.8343 308.991 83.9493Z" fill="#313131"/>
<path d="M325.053 86.7255C325.19 88.4938 325.049 89.7802 324.674 90.8001C324.547 91.2753 324.23 91.6995 323.963 91.9337C323.697 92.1679 323.335 92.3766 322.904 92.4648C322.353 92.6226 321.852 92.5903 321.636 92.6344L321.207 91.1952C321.518 91.1766 321.949 91.0884 322.595 90.9561C322.811 90.912 323.026 90.8678 323.172 90.7032C323.318 90.5386 323.464 90.374 323.541 90.0889C324.189 88.4293 323.977 85.4186 323.051 80.8925L322.717 79.4788L320.517 79.7043L320.341 78.8422L330.902 76.681L331.079 77.5432L329.398 78.1115L331.736 89.5347L333.625 89.3278L333.801 90.1899L328.197 91.3367L328.021 90.4746L329.917 89.8621L327.579 78.4389L323.915 79.1887L324.293 80.8179C324.614 83.0428 324.89 85.0522 325.053 86.7255Z" fill="#313131"/>
<path d="M334.666 77.0784L333.139 77.0766L332.988 76.1195L342.369 74.559L343.133 77.4118L342.081 77.5373L341.227 75.7808L336.682 76.3964L337.525 81.6133L340.638 81.0213L340.64 79.4939L341.692 79.3684L342.384 83.6281L341.332 83.7536L340.833 82.1939L337.746 82.6909L338.607 88.2183L343.78 87.1598L344.347 84.6635L345.513 84.874L345.554 88.1443L335.335 89.7862L335.159 88.924L336.693 88.5203L334.666 77.0784Z" fill="#313131"/>
<path d="M350.076 74.6887L346.894 75.1602L346.756 79.0957L345.488 79.2653L345.19 74.2962L356.764 72.9158L357.588 77.8221L356.441 77.9221L355.337 74.0612L352.111 74.3172L353.561 86.0118L356.235 85.9136L356.291 86.8453L349.236 87.7051L349.18 86.7734L351.551 86.2883L350.076 74.6887Z" fill="#313131"/>
<path d="M365.356 80.0051L364.424 80.061C364.157 80.2952 363.84 80.7194 363.592 81.2642C363.319 81.904 363.02 82.6388 362.766 83.5891C362.416 84.514 362.238 85.1792 362.015 85.6289C361.793 86.0786 361.622 86.3382 361.406 86.3824L358.896 86.6265L358.84 85.6948L359.512 85.4675C359.728 85.4234 359.874 85.2588 360.071 84.9041C360.267 84.5494 360.515 84.0047 360.814 83.2699C361.138 82.44 361.532 81.7307 361.78 81.186C362.123 80.6667 362.44 80.2425 362.802 80.0337C361.921 79.8996 361.211 79.5058 360.674 78.8524C360.136 78.199 359.839 77.4064 359.783 76.4747C359.664 75.0169 360.065 73.902 360.839 73.2945C361.733 72.6175 362.957 72.2323 364.605 72.1646C364.915 72.1459 365.441 72.0832 366.037 72.1409C366.658 72.1037 367.064 72.1105 367.374 72.0918L370.074 71.8986L370.13 72.8303L368.621 73.139L369.527 84.5859L371.244 84.6386L371.3 85.5703L365.779 86.0263L365.723 85.0947L367.543 84.7673L367.149 79.7728L365.356 80.0051ZM366.118 72.9776C365.523 72.9199 365.091 73.0081 364.591 72.9758C363.659 73.0317 362.867 73.3286 362.454 73.7274C361.921 74.1957 361.718 74.956 361.843 76.0082C361.874 77.0349 362.291 77.7579 362.759 78.2908C363.348 78.7542 364.108 78.9579 365.04 78.902C366.067 78.8715 366.713 78.7392 367.024 78.7206L366.619 73.0099L366.118 72.9776Z" fill="#313131"/>
<path d="M376.842 72.4897L373.616 72.7457L373.073 76.6744L371.83 76.7489L371.963 71.6917L383.593 71.2429L383.986 76.2374L382.865 76.2424L382.071 72.3629L378.801 72.4033L379.198 84.2234L381.822 84.3153L381.878 85.247L374.786 85.4857L374.73 84.554L377.145 84.2844L376.842 72.4897Z" fill="#313131"/>
<path d="M392.678 84.4742C391.735 83.814 391.032 83.0146 390.501 81.9556C389.97 80.8966 389.8 79.6288 389.777 78.1965C389.848 76.7896 390.179 75.5542 390.77 74.4902C391.36 73.4262 392.185 72.6286 393.244 72.0975C394.303 71.5664 395.406 71.2509 396.718 71.2968C397.624 71.3359 398.816 71.4514 400.146 71.8079L400.716 71.9607L400.421 75.3447L399.204 75.3242L398.814 72.9788C398.649 72.8328 398.39 72.6614 397.915 72.5341C397.439 72.4068 396.939 72.3745 396.343 72.3167C395.532 72.3031 394.86 72.5304 394.232 72.9733C393.604 73.4162 393.115 74.1001 392.696 74.9044C392.346 75.8293 392.092 76.7797 392.046 78.0915C392.025 79.3083 392.151 80.3605 392.422 81.248C392.694 82.1356 393.181 82.9791 393.839 83.563C394.497 84.1468 395.232 84.4456 396.138 84.4847C396.855 84.4729 397.26 84.4797 397.691 84.3915C398.027 84.2778 398.363 84.1641 398.63 83.93L399.424 82.1057L400.59 82.3162L400.093 84.933C399.782 84.9517 399.446 85.0654 398.92 85.1281C398.489 85.2163 398.032 85.3996 397.627 85.3927C397.196 85.481 396.695 85.4487 396.074 85.486C394.762 85.44 393.622 85.1345 392.678 84.4742Z" fill="#313131"/>
<path d="M408.284 71.8492L408.245 72.7555L406.381 72.8673L405.698 82.2588L407.406 80.0681L413.237 73.8895L413.27 73.3889L411.628 73.051L411.668 72.1448L416.769 72.4931L416.73 73.3994L415.272 73.518L414.504 85.1276L416.05 85.44L416.011 86.3462L410.815 85.9725L410.854 85.0662L412.501 84.9985L413.115 75.4865L411.553 77.5126L405.601 83.7607L405.518 84.4514L407.28 84.7197L407.24 85.6259L401.949 85.2267L401.988 84.3204L403.541 84.2272L404.309 72.6177L402.858 72.3307L402.897 71.4245L408.284 71.8492Z" fill="#313131"/>
<path d="M428.562 73.7177L428.169 78.6036L426.883 78.4626L426.78 74.6662L422.661 74.0719L421.341 85.8393L424.554 86.3945L424.42 87.2752L417.107 86.4363L417.241 85.5555L419.269 85.5896L420.513 74.1074L418.612 73.5981L418.746 72.7173L428.562 73.7177Z" fill="#313131"/>
<path d="M431.71 75.2743L430.31 74.7973L430.444 73.9165L435.443 74.645L435.309 75.5258L433.687 75.4985L432.958 80.498L439.409 81.5134L440.137 76.5139L438.642 76.0114L438.776 75.1307L443.776 75.8591L443.642 76.7399L442.114 76.7381L440.37 88.188L441.796 88.57L441.662 89.4508L436.662 88.7223L436.796 87.8415L438.324 87.8434L439.154 82.4637L432.704 81.4483L431.873 86.828L433.489 87.2608L433.355 88.1416L428.26 87.3877L428.394 86.5069L429.922 86.5087L431.71 75.2743Z" fill="#313131"/>
<path d="M450.53 77.2615L452.551 77.7012L454.424 91.2406L455.538 91.6412L455.404 92.5219L450.576 91.5338L450.71 90.6531L452.307 90.7754L451.975 87.8343L446.672 86.7189L445.268 89.2966L446.763 89.7991L446.629 90.6799L442.276 89.8191L442.41 88.9383L443.627 88.9588L450.53 77.2615ZM451.122 80.374L450.959 78.7006L450.241 80.2398L447.237 85.7499L451.875 86.6871L451.122 80.374Z" fill="#313131"/>
<path d="M461.221 88.6821C460.598 90.2468 459.861 91.4754 459.157 92.2034C458.744 92.6021 458.383 92.8108 458.047 92.9245C457.711 93.0382 457.305 93.0314 456.83 92.904C456.26 92.7513 455.785 92.6239 455.525 92.4525L455.717 90.9761C456.002 91.0525 456.477 91.1798 457.047 91.3326C457.237 91.3835 457.453 91.3394 457.668 91.2953C457.884 91.2512 458.03 91.0866 458.296 90.8524C459.534 89.6561 460.798 86.8374 461.9 82.3453L462.282 80.9198L460.286 80.3851L460.541 79.4347L471.045 82.0457L470.791 82.9961L469.004 82.8228L466.189 94.0877L467.944 94.7616L467.715 95.6169L462.082 94.2095L462.311 93.3542L464.263 93.6735L467.078 82.4086L463.346 81.5105L462.913 83.1261C462.473 85.1472 461.844 87.1175 461.221 88.6821Z" fill="#313131"/>
<path d="M477.292 89.525C478.692 90.002 479.73 90.6877 480.312 91.5566C480.894 92.4256 480.994 93.5728 480.568 94.7828C480.091 96.1828 479.336 97.1009 478.303 97.5369C477.149 98.0426 475.932 98.0221 474.506 97.6401C474.316 97.5892 474.126 97.5383 473.936 97.4873C473.746 97.4364 473.556 97.3855 473.296 97.2141C472.656 96.9408 471.991 96.7625 471.446 96.5147L469.001 95.7576L469.23 94.9023L470.776 95.2147L474.161 84.1026L472.812 83.4355L473.041 82.5802L478.122 84.1453L477.893 85.0006L476.036 84.7069L474.726 88.8375L477.292 89.525ZM473.456 96.2382C473.646 96.2892 474.001 96.4861 474.381 96.5879C475.426 96.868 476.237 96.8817 476.96 96.4643C477.683 96.0468 478.172 95.363 478.452 94.3176C478.732 93.2722 478.72 92.5561 478.303 91.8331C477.955 91.2306 477.271 90.7418 476.251 90.3666L474.446 89.8828L472.626 95.914C473.006 96.0159 473.266 96.1873 473.456 96.2382ZM490.09 87.7594L489.86 88.6147L488.099 88.3465L484.714 99.4586L486.348 100.202L486.119 101.057L480.848 99.4413L481.077 98.586L482.813 98.9493L486.198 87.8372L484.564 87.0937L484.793 86.2384L490.09 87.7594Z" fill="#313131"/>
<path d="M497.779 91.7553L496.455 90.9932L496.779 90.1634L501.499 91.9372L501.174 92.7671L499.628 92.4547L497.855 97.1741L504.044 99.5454L505.817 94.826L504.494 94.0639L504.818 93.2341L509.537 95.0079L509.213 95.8377L507.762 95.5508L503.617 106.459L504.966 107.126L504.642 107.956L499.923 106.182L500.247 105.352L501.767 105.76L503.738 100.686L497.549 98.3145L495.578 103.389L496.997 104.176L496.673 105.006L491.884 103.112L492.208 102.282L493.729 102.689L497.779 91.7553Z" fill="#313131"/>
<path d="M515.77 97.5946L517.69 98.4144L516.672 112.096L517.616 112.756L517.291 113.586L512.743 111.553L513.068 110.723L514.563 111.225L514.946 108.272L509.923 106.112L508.026 108.252L509.444 109.039L509.12 109.869L505.022 108.058L505.346 107.228L506.487 107.534L515.77 97.5946ZM515.716 100.839L515.959 99.1729L514.886 100.515L510.774 105.219L515.157 107.107L515.716 100.839Z" fill="#313131"/>
<path d="M529.482 105.343L527.76 104.168L528.179 103.364L532.555 105.657L531.049 114.319L530.508 116.72L532.113 114.91L538.281 108.617L542.658 110.911L542.238 111.715L540.294 110.99L536.243 121.924L537.611 122.902L537.192 123.706L532.461 121.216L532.88 120.412L534.445 121.035L537.559 113.211L538.882 109.797L536.915 111.816L529.681 119.045L528.617 118.454L530.111 109.077L530.768 105.484L528.832 108.53L524.273 115.661L525.831 116.689L525.411 117.494L521.13 115.226L521.549 114.422L523.019 115.019L529.482 105.343Z" fill="#313131"/>
<path d="M548.852 114.404L550.599 115.483L548.01 128.947L548.954 129.608L548.535 130.412L544.304 127.954L544.723 127.15L546.193 127.747L546.836 124.966L542.181 122.191L540.024 124.159L541.297 125.112L540.878 125.916L537.097 123.681L537.516 122.876L538.631 123.277L548.852 114.404ZM548.417 117.547L548.85 115.931L547.612 117.127L542.911 121.368L547.047 123.8L548.417 117.547Z" fill="#313131"/>
<path d="M557.121 120.795L556.064 119.799L556.578 119.02L558.655 120.392C559.01 120.588 559.434 120.906 559.789 121.103C560.403 121.471 560.948 121.719 561.467 122.062C562.93 123.065 563.892 124.036 564.138 125.018C564.384 126.001 564.199 127.072 563.513 128.11C562.973 128.984 562.32 129.522 561.502 129.914C560.684 130.306 559.847 130.387 558.966 130.253C558.086 130.119 557.161 129.769 556.287 129.23C555.932 129.033 555.673 128.861 555.343 128.569C554.989 128.373 554.824 128.227 554.755 128.106L552.501 131.576L554.527 133.138L554.012 133.917L548.889 130.609L549.404 129.83L550.848 130.522L557.121 120.795ZM556.801 128.451C557.675 128.991 558.435 129.194 559.297 129.018C560.16 128.841 560.934 128.234 561.67 127.005C562.21 126.131 562.439 125.276 562.212 124.604C561.984 123.932 561.446 123.279 560.503 122.618C560.148 122.421 559.794 122.225 559.344 122.002C559.084 121.831 558.894 121.78 558.894 121.78L555.269 127.327C555.598 127.619 556.022 127.937 556.801 128.451Z" fill="#313131"/>
<path d="M561.53 138.172C561.094 137.138 560.994 135.991 561.179 134.92C561.364 133.85 561.911 132.57 562.742 131.367C563.549 130.259 564.494 129.392 565.553 128.861C566.612 128.329 567.785 128.134 568.976 128.25C570.167 128.365 571.282 128.766 572.295 129.547C573.074 130.061 573.967 130.911 574.834 131.857L575.328 132.295L573.208 134.884L572.169 134.198L573.161 132.019C573.117 131.804 572.882 131.538 572.674 131.176C572.465 130.815 571.946 130.472 571.426 130.129C570.743 129.64 570.077 129.462 569.266 129.448C568.455 129.434 567.662 129.731 566.914 130.244C566.165 130.756 565.341 131.554 564.68 132.497C564.02 133.441 563.55 134.435 563.2 135.36C562.946 136.31 562.811 137.191 563.083 138.079C563.354 138.966 563.797 139.594 564.576 140.109C565.095 140.452 565.52 140.769 565.9 140.871C566.28 140.973 566.565 141.049 566.876 141.03L568.588 139.961L569.481 140.812L567.539 142.736C567.279 142.565 566.899 142.463 566.45 142.24C565.974 142.113 565.62 141.916 565.145 141.789C564.79 141.592 564.34 141.37 563.821 141.027C562.833 140.151 561.966 139.206 561.53 138.172Z" fill="#313131"/>
<path d="M588.79 142.115L588.18 142.868L586.623 141.84L580.701 149.115L583.364 148.3L591.649 146.65L591.966 146.226L590.865 145.014L591.474 144.26L595.476 147.573L594.866 148.327L593.543 147.565L586.136 156.581L587.263 157.697L586.679 158.356L582.677 155.043L583.261 154.384L584.655 155.267L590.697 147.923L588.249 148.693L579.749 150.387L579.311 150.881L580.507 152.119L579.923 152.777L575.827 149.438L576.411 148.78L577.709 149.637L585.116 140.621L584.084 139.53L584.693 138.777L588.79 142.115Z" fill="#313131"/>
<path d="M598.267 150.46C598.812 150.708 599.141 151 599.496 151.197C599.85 151.394 600.18 151.686 600.439 151.857C601.592 152.879 602.338 153.894 602.584 154.876C602.83 155.859 602.601 156.714 601.897 157.442C601.192 158.17 600.469 158.588 599.563 158.549C598.726 158.63 597.871 158.401 597.092 157.886C597.89 158.711 598.377 159.555 598.458 160.391C598.54 161.228 598.215 162.058 597.631 162.716C596.756 163.704 595.697 164.235 594.6 164.145C593.479 164.15 592.32 163.534 590.908 162.341C590.319 161.877 589.946 161.37 589.572 160.862C589.199 160.355 588.99 159.994 588.756 159.727C588.617 159.486 588.478 159.245 588.408 159.125L590.832 156.922L591.49 157.506L590.309 159.634C590.536 160.306 591.074 160.959 591.802 161.664C592.461 162.248 593.005 162.495 593.747 162.388C594.393 162.256 595.091 161.934 595.7 161.18C596.259 160.617 596.437 159.952 596.52 159.261C596.603 158.57 596.091 157.822 595.268 157.092L594.28 156.216L594.985 155.488L595.808 156.218C596.232 156.536 596.656 156.853 597.131 156.98C597.606 157.108 598.107 157.14 598.659 156.982C599.21 156.824 599.597 156.521 600.035 156.027C600.619 155.368 600.867 154.824 600.734 154.177C600.697 153.556 600.324 153.048 599.665 152.465C599.267 152.052 598.912 151.855 598.462 151.633C598.108 151.436 597.797 151.455 597.582 151.499L596.18 152.549L595.262 151.794L597.09 149.533C597.393 149.92 597.748 150.117 598.267 150.46Z" fill="#313131"/>
<path d="M609.407 162.103L608.522 160.847L609.201 160.214L610.96 162.01C611.289 162.302 611.688 162.714 612.182 163.152C612.676 163.59 613.005 163.882 613.17 164.028C614.366 165.265 615.113 166.28 615.169 167.212C615.345 168.074 615.021 168.904 614.316 169.632C613.637 170.265 612.94 170.587 612.198 170.694C611.457 170.801 610.601 170.571 609.823 170.057C610.715 170.907 611.202 171.751 611.258 172.683C611.314 173.614 611.015 174.349 610.311 175.077C609.461 175.97 608.332 176.38 607.236 176.29C606.044 176.175 604.721 175.413 603.265 174.004C602.935 173.712 602.632 173.325 602.398 173.059C601.765 172.38 601.366 171.967 601.201 171.821L599.442 170.026L600.12 169.393L601.393 170.345L609.407 162.103ZM603.874 173.251C604.767 174.101 605.545 174.615 606.357 174.629C607.168 174.642 607.865 174.32 608.544 173.687C609.223 173.054 609.522 172.319 609.485 171.698C609.447 171.077 609.03 170.354 608.232 169.529C607.34 168.679 606.776 168.121 606.542 167.854L602.634 171.798C602.678 172.013 603.171 172.451 603.874 173.251ZM608.095 167.761L608.823 168.465C609.481 169.049 610.096 169.417 610.717 169.38C611.338 169.343 612.036 169.02 612.619 168.362C613.203 167.704 613.546 167.184 613.509 166.563C613.472 165.942 613.054 165.219 612.326 164.515C611.997 164.223 611.668 163.931 611.243 163.614L610.914 163.322L607.272 167.031C607.462 167.082 607.696 167.348 608.095 167.761Z" fill="#313131"/>
<path d="M621.709 172.835L623.139 174.338L616.755 186.378L617.407 187.368L616.728 188.001L613.424 184.365L614.103 183.732L615.255 184.754L616.754 182.202L613.051 178.154L610.382 179.374L611.363 180.655L610.684 181.288L607.684 178.04L608.362 177.407L609.28 178.162L621.709 172.835ZM620.228 175.697L621.136 174.209L619.595 175.018L613.895 177.667L617.129 181.182L620.228 175.697Z" fill="#313131"/>
<path d="M619.153 189.975C618.958 188.802 619.143 187.732 619.639 186.642C620.134 185.553 620.915 184.54 622.076 183.628C623.142 182.692 624.296 182.186 625.494 181.896C626.692 181.606 627.884 181.721 628.998 182.122C630.113 182.523 631.057 183.183 631.899 184.223C632.506 184.997 633.158 185.987 633.758 187.166L634.011 187.743L631.328 189.774L630.556 188.854L632.092 186.923C632.048 186.708 632.029 186.397 631.82 186.036C631.612 185.674 631.333 185.192 630.935 184.78C630.397 184.126 629.782 183.758 629.022 183.554C628.262 183.351 627.425 183.432 626.538 183.703C625.65 183.975 624.686 184.531 623.766 185.303C622.846 186.076 622.116 186.899 621.602 187.677C621.062 188.551 620.833 189.407 620.82 190.218C620.806 191.029 621.103 191.822 621.71 192.596C622.179 193.129 622.508 193.42 622.863 193.617C623.217 193.814 623.477 193.986 623.787 193.967L625.683 193.355L626.335 194.344L624.02 195.761C623.855 195.615 623.526 195.323 623.102 195.006C622.652 194.783 622.323 194.491 621.994 194.199C621.664 193.907 621.24 193.59 620.867 193.083C619.879 192.207 619.348 191.148 619.153 189.975Z" fill="#313131"/>
<path d="M638.177 196.905C639.324 196.805 640.3 196.965 641.224 197.315C642.149 197.664 642.972 198.394 643.58 199.168C644.326 200.183 644.693 201.096 644.818 202.148C644.849 203.175 644.689 204.151 644.124 205.12C643.559 206.089 642.804 207.007 641.668 207.823C640.507 208.734 639.233 209.309 638.035 209.6C636.836 209.89 635.74 209.8 634.625 209.399C633.51 208.998 632.757 208.389 632.08 207.495C631.333 206.48 630.897 205.446 630.772 204.394C630.646 203.342 630.901 202.391 631.371 201.397C631.936 200.428 632.691 199.51 633.732 198.668L631.935 196.252L627.583 199.567L628.418 201.013L627.67 201.526L624.588 197.441L625.337 196.928L626.463 198.045L635.674 191.04L634.909 189.715L635.682 189.107L638.694 193.072L637.921 193.679L636.794 192.563L632.829 195.575L634.626 197.991C635.996 197.442 637.099 197.126 638.177 196.905ZM639.797 198.46C638.555 198.535 637.065 199.154 635.396 200.439C633.969 201.584 632.973 202.641 632.547 203.851C632.121 205.061 632.246 206.113 632.993 207.128C633.765 208.048 634.664 208.493 635.932 208.323C637.174 208.249 638.595 207.509 640.238 206.319C641.665 205.174 642.661 204.117 643.087 202.907C643.513 201.697 643.388 200.645 642.711 199.75C642.034 198.856 641.039 198.386 639.797 198.46Z" fill="#313131"/>
<path d="M646.126 216.657C645.922 217.417 645.452 218.412 644.931 219.596C644.511 220.401 644.333 221.066 644.136 221.42C644.034 221.801 643.933 222.181 644.002 222.301L644.229 222.973L643.481 223.486L642.152 221.602C642.013 221.361 642.02 220.955 642.268 220.411C642.516 219.866 642.84 219.036 643.31 218.041C643.926 216.882 644.276 215.958 644.549 215.318C644.822 214.678 644.76 214.152 644.646 213.816L643.994 212.826L639.624 215.832L640.339 217.347L639.59 217.86L636.75 213.635L637.498 213.123L638.504 214.309L648.088 207.812L647.443 206.417L648.192 205.904L650.963 210.008L650.214 210.521L649.208 209.334L644.743 212.314L645.603 213.665L652.188 213.8L651.448 212.379L652.196 211.867L654.733 215.704L653.985 216.216L652.953 215.125L646.204 214.844C646.387 215.301 646.329 215.897 646.126 216.657Z" fill="#313131"/>
<path d="M645.753 226.03C645.818 225.028 646.098 223.983 646.853 223.065C647.513 222.121 648.459 221.254 649.664 220.559C650.894 219.768 652.118 219.383 653.265 219.283C654.507 219.208 655.578 219.393 656.573 219.863C657.567 220.334 658.39 221.063 659.016 222.148C659.99 223.835 660.299 225.344 659.771 226.934C659.268 228.429 658.101 229.746 656.268 230.884C655.037 231.675 653.814 232.06 652.546 232.23C651.304 232.304 650.233 232.119 649.143 231.623C648.149 231.153 647.351 230.328 646.7 229.339C646.004 228.134 645.784 227.056 645.753 226.03ZM655.291 220.844C654.074 220.824 652.515 221.323 650.802 222.392C649.21 223.391 648.119 224.423 647.598 225.607C646.982 226.766 647.107 227.818 647.733 228.903C648.385 229.892 649.354 230.458 650.571 230.478C651.883 230.524 653.347 230 655.06 228.931C656.652 227.931 657.743 226.9 658.264 225.715C658.76 224.626 658.755 223.504 658.128 222.419C657.477 221.43 656.603 220.89 655.291 220.844Z" fill="#313131"/>
<path d="M662.783 230.898L662.259 229.434L663.102 228.947L664.354 231.116C664.563 231.477 664.841 231.959 665.215 232.467C665.588 232.974 665.797 233.336 665.936 233.577C666.745 235.118 667.156 236.246 666.996 237.222C666.836 238.198 666.373 238.787 665.504 239.369C664.781 239.786 663.919 239.962 663.133 239.854C662.348 239.745 661.638 239.351 661.031 238.577C661.657 239.662 661.833 240.524 661.674 241.5C661.54 242.381 660.956 243.039 660.112 243.526C659.028 244.152 657.881 244.252 656.766 243.852C655.651 243.451 654.619 242.36 653.575 240.552C653.367 240.191 653.183 239.734 652.975 239.373C652.488 238.529 652.235 237.952 652.165 237.832L650.913 235.663L651.731 235.271L652.617 236.527L662.783 230.898ZM654.324 240.04C654.95 241.124 655.583 241.803 656.343 242.007C657.103 242.21 657.845 242.104 658.689 241.617C659.532 241.13 659.995 240.541 660.148 239.971C660.301 239.4 660.125 238.538 659.568 237.574C658.942 236.49 658.524 235.767 658.385 235.526L653.496 238.188C653.584 238.619 653.837 239.196 654.324 240.04ZM659.906 235.933L660.367 236.872C660.785 237.595 661.374 238.058 661.944 238.211C662.609 238.389 663.256 238.257 664.099 237.77C664.822 237.352 665.26 236.859 665.413 236.288C665.566 235.718 665.364 234.951 664.807 233.987C664.598 233.626 664.295 233.239 664.111 232.782L663.903 232.421L659.349 234.969C659.488 235.21 659.628 235.451 659.906 235.933Z" fill="#313131"/>
<path d="M677.342 256.393L676.524 256.785L675.663 255.434L665.244 260.485L665.813 262.165L664.995 262.557L662.713 257.77L663.531 257.378L664.391 258.729L674.905 253.703L672.275 248.313L661.736 253.434L662.304 255.114L661.486 255.506L659.178 250.813L659.996 250.421L660.787 251.652L671.206 246.6L670.707 245.041L671.525 244.649L677.342 256.393Z" fill="#313131"/>
<path d="M667.038 265.957C667.223 264.886 667.763 264.012 668.492 263.189C669.317 262.391 670.332 261.645 671.607 261.07C672.881 260.494 674.174 260.23 675.366 260.345C676.557 260.461 677.602 260.741 678.546 261.401C679.49 262.061 680.167 262.956 680.603 263.989C681.336 265.816 681.429 267.368 680.641 268.787C679.949 270.231 678.521 271.377 676.575 272.179C675.205 272.729 673.912 272.993 672.721 272.878C671.529 272.762 670.389 272.457 669.445 271.797C668.502 271.136 667.825 270.242 667.294 269.183C666.978 268.08 666.783 266.907 667.038 265.957ZM677.195 262.261C675.934 262.025 674.425 262.334 672.479 263.137C670.748 263.895 669.492 264.781 668.806 265.82C668.12 266.858 667.935 267.929 668.441 269.083C668.947 270.237 669.795 270.872 671.056 271.108C672.317 271.344 673.921 271.061 675.772 270.233C677.503 269.474 678.759 268.588 679.445 267.55C680.131 266.511 680.221 265.415 679.81 264.286C679.304 263.132 678.456 262.497 677.195 262.261Z" fill="#313131"/>
<path d="M676.947 278.39C675.223 278.743 673.861 278.887 672.885 278.728C672.41 278.6 671.934 278.473 671.7 278.207C671.371 277.915 671.137 277.648 670.954 277.192C670.701 276.615 670.613 276.184 670.594 275.873L671.989 275.228C672.008 275.539 672.191 275.995 672.444 276.572C672.488 276.788 672.652 276.934 672.817 277.08C672.982 277.226 673.172 277.277 673.457 277.353C675.193 277.716 678.21 277.099 682.414 275.475L683.784 274.925L683.222 272.84L684.135 272.473L687.951 282.561L687.038 282.927L686.229 281.386L675.348 285.499L675.796 287.249L674.909 287.52L672.9 282.093L673.787 281.821L674.641 283.578L685.521 279.465L684.22 275.959L682.635 276.553C680.542 277.52 678.672 278.037 676.947 278.39Z" fill="#313131"/>
<path d="M688.029 286.452L687.72 284.944L688.608 284.672L691.582 293.72L688.938 294.845L688.597 293.836L690.119 292.717L688.762 288.279L683.747 289.889L684.795 292.818L686.374 292.63L686.715 293.638L682.587 294.976L682.246 293.968L683.667 293.229L682.739 290.23L677.483 291.979L679.308 296.95L681.907 297.137L681.912 298.258L678.634 298.705L675.363 288.865L676.251 288.593L676.896 289.988L688.029 286.452Z" fill="#313131"/>
<path d="M692.815 301.282L691.792 298.258L687.798 298.716L687.508 297.517L692.371 296.478L695.57 307.724L690.771 309.29L690.455 308.187L694.063 306.506L693.281 303.342L681.94 306.516L682.469 309.103L681.581 309.374L679.644 302.54L680.531 302.269L681.353 304.526L692.815 301.282Z" fill="#313131"/>
<path d="M689.874 317.198L689.698 316.336C689.464 316.07 688.988 315.942 688.323 315.764C687.658 315.586 686.872 315.477 685.896 315.318C684.921 315.158 684.255 314.98 683.78 314.852C683.305 314.725 683.045 314.554 683.001 314.338L682.447 311.847L683.309 311.67L683.631 312.368C683.701 312.488 683.96 312.66 684.315 312.857C684.695 312.959 685.265 313.111 686 313.41C686.855 313.639 687.616 313.843 688.281 314.021C688.826 314.269 689.275 314.491 689.605 314.783C689.644 313.877 689.942 313.142 690.406 312.553C690.99 311.895 691.713 311.478 692.575 311.301C693.988 310.967 695.154 311.178 695.882 311.882C696.61 312.586 697.211 313.766 697.589 315.395C697.703 315.731 697.766 316.257 697.828 316.783C697.866 317.404 697.954 317.835 698.068 318.171L698.692 320.783L697.804 321.055L697.185 319.565L685.875 322.238L686.133 323.937L685.297 324.018L683.978 318.674L684.841 318.498L685.409 320.178L690.202 319.018L689.874 317.198ZM696.871 316.934C696.808 316.408 696.746 315.882 696.658 315.451C696.412 314.468 696.064 313.866 695.57 313.428C695.076 312.99 694.265 312.976 693.282 313.222C692.3 313.468 691.577 313.886 691.208 314.5C690.84 315.114 690.731 315.9 690.977 316.883C691.223 317.865 691.356 318.512 691.495 318.753L697.054 317.391L696.871 316.934Z" fill="#313131"/>
<path d="M699.058 327.4L698.371 324.262L694.359 324.41L694.164 323.237L699.114 322.628L701.357 334.026L696.469 335.161L696.274 333.988L699.996 332.643L699.524 329.461L687.937 331.652L688.25 334.283L687.388 334.459L686.002 327.467L686.865 327.291L687.565 329.617L699.058 327.4Z" fill="#313131"/>
<path d="M689.695 344.855C690.165 343.861 690.921 342.943 691.885 342.386C692.874 341.735 694.098 341.35 695.486 341.11C696.849 340.966 698.161 341.012 699.25 341.508C700.365 341.909 701.283 342.664 702.055 343.584C702.827 344.504 703.238 345.632 703.407 346.9C703.558 347.857 703.563 348.979 703.397 350.36L703.339 350.956L700.018 351.186L699.848 349.919L702.106 349.097C702.252 348.933 702.353 348.553 702.36 348.147C702.367 347.742 702.425 347.146 702.267 346.594C702.16 345.853 701.838 345.155 701.274 344.597C700.711 344.038 700.002 343.645 699.051 343.39C698.101 343.135 697.074 343.166 695.832 343.24C694.659 343.435 693.677 343.681 692.738 344.143C691.8 344.604 691.146 345.142 690.657 345.826C690.169 346.51 690.034 347.391 690.116 348.228C690.248 348.874 690.311 349.4 690.52 349.762C690.633 350.098 690.867 350.364 691.102 350.631L693.002 351.14L692.982 352.357L690.263 352.239C690.219 352.024 690.131 351.593 689.853 351.111C689.669 350.654 689.461 350.293 689.372 349.862C689.284 349.431 689.101 348.974 689.064 348.353C689.084 347.136 689.2 345.945 689.695 344.855Z" fill="#313131"/>
<path d="M704.598 358.423L703.666 358.479L703.244 356.634L693.85 357.479L696.238 358.832L703.318 363.581L703.844 363.518L703.897 361.8L704.828 361.744L705.291 366.859L704.36 366.915L704.025 365.502L692.433 366.572L692.405 368.194L691.474 368.25L691.036 363.04L691.968 362.984L692.346 364.613L701.835 363.794L699.516 362.562L692.367 357.692L691.746 357.73L691.693 359.447L690.762 359.503L690.324 354.293L691.256 354.237L691.565 355.746L703.157 354.676L703.254 353.174L704.186 353.118L704.598 358.423Z" fill="#313131"/>
<path d="M705.879 378.73L701.005 379.054L700.93 377.812L704.69 377.087L704.663 373.006L692.912 373.524L692.858 376.769L691.926 376.825L691.548 369.492L692.48 369.436L692.756 371.445L704.317 370.876L704.446 368.874L705.378 368.818L705.879 378.73Z" fill="#313131"/>
<path d="M704.798 382.006L704.99 380.529L705.896 380.568L705.858 385.651L704.952 385.612L704.764 384.034L699.776 384.021L699.736 390.632L704.724 390.644L704.916 389.167L705.822 389.206L705.81 394.194L704.904 394.155L704.69 392.672L693.067 392.715L692.875 394.191L691.968 394.152L691.981 389.165L692.887 389.204L693.075 390.782L698.469 390.801L698.508 384.191L693.115 384.172L692.898 385.743L691.991 385.704L691.934 380.596L692.84 380.635L693.054 382.118L704.798 382.006Z" fill="#313131"/>
<path d="M705.84 400.925L705.806 402.953L692.733 406.885L692.522 408.051L691.616 408.012L691.818 403.075L692.725 403.115L692.818 404.667L695.671 403.904L695.905 398.466L693.226 397.443L693.008 399.014L692.102 398.975L692.272 394.539L693.179 394.578L693.279 395.725L705.84 400.925ZM702.79 402.043L704.419 401.665L702.734 401.111L696.805 398.911L696.558 403.632L702.79 402.043Z" fill="#313131"/>
<path d="M696.204 413.316C694.494 412.858 693.284 412.432 692.435 411.797C692.011 411.479 691.682 411.187 691.568 410.851C691.36 410.49 691.366 410.084 691.373 409.679C691.431 409.083 691.438 408.678 691.609 408.418L693.137 408.42C693.06 408.705 693.028 409.205 692.97 409.801C692.919 409.991 692.963 410.207 693.102 410.448C693.147 410.663 693.311 410.809 693.571 410.981C694.913 412.053 697.98 412.773 702.46 413.159L703.962 413.256L704.332 411.114L705.238 411.153L704.294 421.9L703.387 421.861L703.345 420.118L691.812 419.065L691.423 420.896L690.517 420.857L691.043 415.091L691.95 415.13L691.941 417.063L703.474 418.116L703.777 414.326L702.085 414.179C699.797 413.973 697.845 413.654 696.204 413.316Z" fill="#313131"/>
<path d="M697.846 429.238C697.654 430.714 697.133 431.899 696.238 432.576C695.439 433.278 694.361 433.499 693.075 433.358C691.694 433.191 690.655 432.506 690.004 431.516C689.352 430.527 689.182 429.259 689.374 427.783C689.425 427.593 689.476 427.403 689.432 427.187C689.388 426.972 689.534 426.807 689.61 426.522C689.789 425.857 689.872 425.166 690.024 424.596L690.401 422.048L691.282 422.183L691.255 423.805L702.825 425.479L703.328 423.984L704.209 424.118L703.404 429.403L702.523 429.269L702.411 427.405L698.102 426.76L697.846 429.238ZM690.612 426.586C690.561 426.776 690.459 427.157 690.452 427.562C690.267 428.633 690.469 429.4 691.007 430.054C691.545 430.707 692.254 431.101 693.35 431.191C694.326 431.35 695.188 431.174 695.721 430.706C696.349 430.263 696.648 429.528 696.833 428.457L697.127 426.601L690.841 425.731C690.739 426.111 690.662 426.396 690.612 426.586ZM701.551 441.639L700.67 441.504L700.723 439.787L689.248 438.138L688.789 439.849L687.909 439.715L688.644 434.31L689.525 434.444L689.472 436.161L700.947 437.81L701.406 436.099L702.287 436.234L701.551 441.639Z" fill="#313131"/>
<path d="M698.74 449.849L699.312 448.474L700.168 448.704L699.033 453.696L698.178 453.467L698.301 451.87L693.403 450.762L691.982 457.205L696.88 458.314L697.452 456.939L698.307 457.168L697.198 462.066L696.343 461.837L696.44 460.335L685.073 457.9L684.596 459.3L683.741 459.071L684.849 454.174L685.705 454.403L685.608 455.905L690.911 457.02L692.332 450.576L687.029 449.461L686.501 451.051L685.646 450.822L686.78 445.829L687.635 446.058L687.538 447.56L698.74 449.849Z" fill="#313131"/>
<path d="M695.708 468.389L695.173 470.385L681.596 471.636L681.101 472.725L680.245 472.496L681.423 467.719L682.279 467.948L682.061 469.52L684.951 469.377L686.257 464.125L683.8 462.652L683.202 464.121L682.347 463.892L683.398 459.59L684.253 459.82L684.138 461.011L695.708 468.389ZM692.551 468.765L694.294 468.723L692.78 467.91L687.441 464.646L686.314 469.233L692.551 468.765Z" fill="#313131"/>
<path d="M690.182 483.308L691.097 481.414L691.927 481.738L690.369 486.413L681.566 486.193L679.158 486.058L681.26 487.334L688.428 492.514L686.87 497.189L686.04 496.865L686.48 494.844L674.967 492.574L674.275 494.018L673.445 493.694L675.131 488.543L675.96 488.868L675.623 490.509L683.872 492.413L687.439 493.166L685.128 491.528L676.877 485.446L677.278 484.331L686.752 484.324L690.498 484.411L687.134 482.898L679.388 479.498L678.619 481.228L677.789 480.903L679.322 476.323L680.151 476.647L679.839 478.193L690.182 483.308Z" fill="#313131"/>
<path d="M684.251 503.923L683.526 505.868L669.907 505.376L669.342 506.345L668.512 506.021L670.356 501.422L671.186 501.746L670.778 503.267L673.687 503.435L675.658 498.361L673.397 496.533L672.61 497.952L671.78 497.627L673.401 493.478L674.231 493.802L674.02 494.968L684.251 503.923ZM681.006 503.868L682.698 504.016L681.331 503.038L676.481 499.091L674.783 503.525L681.006 503.868Z" fill="#313131"/>
<path d="M679.183 512.954L680.014 511.751L680.844 512.075L679.828 514.349C679.605 514.799 679.503 515.179 679.306 515.534C679.033 516.174 678.88 516.744 678.633 517.288C677.889 518.923 677.108 519.936 676.17 520.397C675.257 520.764 674.23 520.794 672.951 520.248C672.051 519.803 671.367 519.314 670.855 518.566C670.342 517.817 670.14 517.05 670.085 516.118C670.029 515.187 670.283 514.236 670.728 513.337C670.925 512.982 671.001 512.697 671.198 512.343C671.395 511.988 671.446 511.798 671.567 511.728L667.823 510.114L666.616 512.337L665.786 512.013L668.29 506.47L669.12 506.795L668.617 508.29L679.183 512.954ZM671.627 513.782C671.183 514.681 671.169 515.492 671.44 516.38C671.712 517.268 672.465 517.877 673.745 518.423C674.739 518.894 675.551 518.907 676.128 518.654C676.825 518.332 677.314 517.648 677.784 516.654C677.981 516.299 678.083 515.919 678.21 515.444C678.287 515.159 678.338 514.969 678.363 514.874L672.25 512.217C672.174 512.502 671.926 513.047 671.627 513.782Z" fill="#313131"/>
<path d="M662.716 520.052C663.68 519.495 664.783 519.18 665.904 519.175C667.121 519.195 668.357 519.526 669.611 520.168C670.865 520.809 671.878 521.59 672.53 522.579C673.276 523.594 673.592 524.697 673.692 525.845C673.792 526.992 673.581 528.158 672.965 529.317C672.52 530.216 671.86 531.16 671.054 532.268L670.711 532.787L667.779 531.187L668.274 530.097L670.65 530.734C670.866 530.69 671.132 530.455 671.424 530.126C671.716 529.797 671.938 529.347 672.281 528.828C672.675 528.119 672.758 527.428 672.582 526.566C672.475 525.824 672.057 525.101 671.45 524.327C670.817 523.648 669.969 523.014 668.81 522.398C667.72 521.902 666.7 521.527 665.724 521.367C664.749 521.208 663.817 521.263 662.999 521.655C662.206 521.952 661.648 522.516 661.203 523.415C660.93 524.055 660.708 524.505 660.701 524.91C660.599 525.29 660.618 525.601 660.731 525.937L662.067 527.415L661.406 528.359L659.19 526.746C659.267 526.461 659.368 526.081 659.496 525.606C659.623 525.131 659.63 524.725 659.757 524.25C659.859 523.87 660.107 523.325 660.355 522.78C660.971 521.621 661.726 520.703 662.716 520.052Z" fill="#313131"/>
<path d="M663.088 547.551L662.309 547.037L663.078 545.307L654.972 540.589L656.148 543.043L659.091 551.064L659.541 551.286L660.614 549.944L661.392 550.458L658.789 554.853L658.01 554.339L658.582 552.964L648.537 547.115L647.585 548.388L646.781 547.969L649.41 543.479L650.215 543.898L649.496 545.437L657.673 550.276L656.446 548.012L653.527 539.896L652.913 539.528L651.815 540.965L651.011 540.546L653.665 535.961L654.47 536.38L653.872 537.85L663.917 543.699L664.843 542.521L665.622 543.035L663.088 547.551Z" fill="#313131"/>
<path d="M656.37 558.178C656.122 558.722 655.995 559.197 655.798 559.552C655.601 559.907 655.404 560.262 655.233 560.521C654.376 561.819 653.526 562.712 652.612 563.078C651.699 563.445 650.793 563.406 649.919 562.866C649.045 562.326 648.628 561.603 648.451 560.741C648.275 559.879 648.384 559.093 648.733 558.168C648.073 559.112 647.299 559.719 646.437 559.896C645.575 560.072 644.789 559.964 644.01 559.449C642.877 558.738 642.2 557.844 642.1 556.696C641.974 555.644 642.331 554.314 643.359 552.756C643.728 552.142 644.165 551.648 644.603 551.154C645.016 550.755 645.403 550.452 645.669 550.217C645.936 549.983 646.082 549.819 646.177 549.844L648.697 551.843L648.182 552.622L645.883 551.701C645.28 552.049 644.722 552.612 644.062 553.555C643.573 554.239 643.49 554.93 643.622 555.577C643.754 556.223 644.318 556.782 645.192 557.321C645.806 557.69 646.471 557.868 647.213 557.761C647.954 557.654 648.608 557.116 649.148 556.242L649.859 555.109L650.733 555.648L650.193 556.522C649.876 556.947 649.748 557.422 649.621 557.897C649.589 558.398 649.651 558.924 649.835 559.38C650.018 559.837 650.417 560.249 650.936 560.592C651.62 561.081 652.311 561.164 652.862 561.006C653.414 560.849 653.947 560.38 654.435 559.696C654.753 559.272 654.975 558.822 654.982 558.417C655.084 558.037 655.065 557.726 654.926 557.485L653.635 556.222L654.295 555.279L656.778 556.657C656.72 557.253 656.523 557.607 656.37 558.178Z" fill="#313131"/>
<path d="M646.582 571.139L647.699 570.012L648.478 570.527L647.012 572.578C646.72 572.908 646.497 573.357 646.129 573.972C645.786 574.491 645.589 574.845 645.418 575.105C644.44 576.473 643.495 577.34 642.607 577.611C641.72 577.883 640.839 577.749 640.085 577.139C639.402 576.651 638.864 575.997 638.687 575.135C638.485 574.368 638.594 573.582 638.918 572.752C638.258 573.696 637.484 574.303 636.596 574.575C635.734 574.751 634.854 574.617 634.1 574.008C633.087 573.227 632.53 572.263 632.43 571.116C632.33 569.969 632.833 568.474 634.077 566.872C634.369 566.542 634.566 566.188 634.858 565.859C635.467 565.105 635.81 564.586 635.93 564.516L637.397 562.465L638.176 562.979L637.414 564.303L646.582 571.139ZM634.666 567.335C633.885 568.348 633.63 569.298 633.642 570.015C633.654 570.731 634.167 571.479 634.945 571.993C635.699 572.603 636.459 572.806 637.106 572.674C637.752 572.542 638.406 572.004 639.041 571.155C639.821 570.142 640.215 569.433 640.387 569.173L635.859 565.923C635.738 565.993 635.301 566.487 634.666 567.335ZM640.721 570.587L640.086 571.436C639.597 572.119 639.419 572.785 639.551 573.431C639.683 574.078 640.126 574.706 640.81 575.195C641.494 575.683 642.159 575.862 642.78 575.824C643.332 575.667 643.96 575.224 644.62 574.28C644.912 573.951 645.134 573.501 645.331 573.147L645.528 572.792L641.355 569.739C641.305 569.929 641.038 570.163 640.721 570.587Z" fill="#313131"/>
<path d="M637.807 584.881L636.563 586.483L623.608 581.993L622.783 582.791L622.03 582.181L625.102 578.319L625.855 578.928L624.998 580.226L627.678 581.25L631.067 576.963L629.46 574.598L628.343 575.724L627.59 575.115L630.345 571.677L631.098 572.286L630.507 573.35L637.807 584.881ZM634.722 583.851L636.287 584.473L635.236 583.072L631.744 577.858L628.818 581.556L634.722 583.851Z" fill="#313131"/>
<path d="M620.455 585.019C621.558 584.703 622.68 584.698 623.82 585.004C624.96 585.309 626.094 586.02 627.177 586.922C628.259 587.823 629.006 588.838 629.416 589.966C629.827 591.095 629.927 592.242 629.717 593.408C629.506 594.574 628.915 595.638 628.16 596.556C627.551 597.309 626.631 598.082 625.591 598.923L625.083 599.296L622.665 596.917L623.515 596.024L625.643 597.206C625.859 597.162 626.195 597.048 626.582 596.744C626.943 596.536 627.356 596.137 627.699 595.617C628.257 595.054 628.556 594.319 628.569 593.508C628.678 592.722 628.476 591.955 627.989 591.112C627.502 590.268 626.92 589.399 625.907 588.619C624.989 587.863 624.141 587.229 623.216 586.879C622.291 586.529 621.41 586.395 620.573 586.476C619.737 586.558 619.014 586.975 618.404 587.729C617.967 588.223 617.649 588.647 617.547 589.027C617.35 589.382 617.369 589.692 617.293 589.977L618.146 591.734L617.226 592.506L615.543 590.425C615.689 590.261 615.886 589.906 616.134 589.361C616.356 588.911 616.553 588.557 616.75 588.202C616.947 587.847 617.264 587.423 617.702 586.929C618.337 586.081 619.352 585.334 620.455 585.019Z" fill="#313131"/>
<path d="M616.54 604.952C616.855 606.055 616.885 607.082 616.631 608.033C616.376 608.983 615.932 609.882 615.132 610.585C614.282 611.477 613.318 612.034 612.335 612.28C611.353 612.526 610.256 612.436 609.236 612.061C608.216 611.686 607.178 611 606.19 610.124C605.133 609.128 604.317 607.992 603.932 606.769C603.521 605.64 603.326 604.467 603.606 603.422C603.791 602.351 604.357 601.382 605.086 600.559C605.937 599.667 606.901 599.11 607.909 598.769C608.891 598.523 609.988 598.613 611.008 598.988C612.027 599.363 613.066 600.049 614.054 600.925L616.167 598.741L612.198 594.927L610.916 595.908L610.283 595.229L613.83 591.494L614.489 592.078L613.537 593.351L621.874 601.391L623.035 600.479L623.668 601.158L620.146 604.798L619.513 604.119L620.465 602.847L616.825 599.325L614.712 601.509C615.693 602.79 616.224 603.849 616.54 604.952ZM615.365 606.675C615.075 605.477 614.215 604.126 612.759 602.717C611.467 601.454 610.144 600.692 608.883 600.456C607.622 600.22 606.519 600.536 605.668 601.428C604.818 602.321 604.563 603.271 604.854 604.469C605.144 605.667 606.004 607.018 607.555 608.453C608.846 609.715 610.075 610.452 611.31 610.783C612.546 611.114 613.554 610.773 614.404 609.88C615.254 608.988 615.535 607.942 615.365 606.675Z" fill="#313131"/>
<path d="M598.268 615.742C597.482 615.633 596.437 615.353 595.201 615.022C594.346 614.793 593.681 614.615 593.206 614.488C592.826 614.386 592.515 614.404 592.274 614.544L591.577 614.866L590.944 614.187L592.593 612.592C592.834 612.453 593.17 612.339 593.835 612.517C594.406 612.67 595.261 612.899 596.401 613.205C597.611 613.631 598.562 613.886 599.347 613.994C600.013 614.173 600.539 614.11 600.831 613.781L601.656 612.983L598.022 609.056L596.646 610.011L596.013 609.332L599.794 605.864L600.427 606.543L599.406 607.695L607.305 616.228L608.561 615.343L609.194 616.021L605.533 619.42L604.9 618.741L605.852 617.469L602.219 613.541L601.007 614.643L601.899 621.197L603.155 620.311L603.788 620.99L600.394 624.155L599.761 623.476L600.687 622.298L599.941 615.579C599.77 615.839 599.054 615.851 598.268 615.742Z" fill="#313131"/>
<path d="M588.988 616.922C590.041 616.797 591.111 616.982 592.08 617.547C593.17 618.043 594.062 618.893 594.999 619.959C595.936 621.025 596.536 622.204 596.827 623.403C597.117 624.601 597.122 625.722 596.747 626.742C596.371 627.762 595.806 628.731 594.886 629.503C593.433 630.744 591.874 631.243 590.302 631.025C588.731 630.808 587.268 629.805 585.768 628.181C584.831 627.115 584.231 625.935 583.941 624.737C583.65 623.539 583.646 622.417 584.046 621.302C584.352 620.162 584.986 619.313 585.906 618.541C586.903 617.484 587.936 617.048 588.988 616.922ZM595.55 625.505C595.381 624.237 594.641 622.817 593.305 621.339C592.065 619.886 590.862 619.054 589.652 618.628C588.442 618.202 587.364 618.423 586.444 619.195C585.524 619.967 585.149 620.987 585.319 622.254C585.488 623.522 586.228 624.943 587.538 626.516C588.779 627.969 589.982 628.8 591.192 629.226C592.427 629.557 593.505 629.337 594.425 628.565C595.345 627.793 595.72 626.773 595.55 625.505Z" fill="#313131"/>
<path d="M586.857 634.38L588.182 633.615L588.79 634.389L586.855 635.907C586.494 636.116 586.081 636.515 585.643 637.009C585.231 637.408 584.844 637.711 584.603 637.85C583.201 638.901 582.142 639.432 581.21 639.488C580.279 639.544 579.474 639.124 578.867 638.351C578.329 637.697 578.032 636.905 578.046 636.093C578.059 635.282 578.358 634.547 578.942 633.889C578.022 634.661 577.109 635.028 576.203 634.988C575.296 634.949 574.492 634.53 573.885 633.756C573.138 632.741 572.822 631.638 573.033 630.472C573.243 629.306 574.196 628.034 575.743 626.819C576.13 626.515 576.492 626.306 576.758 626.072C577.532 625.465 578.014 625.186 578.16 625.022L580.095 623.503L580.607 624.251L579.491 625.378L586.857 634.38ZM576.471 627.523C575.457 628.27 574.942 629.049 574.834 629.834C574.725 630.62 574.927 631.387 575.534 632.161C576.142 632.935 576.756 633.303 577.447 633.387C578.137 633.47 578.835 633.147 579.729 632.47C580.744 631.724 581.398 631.186 581.569 630.926L578.158 626.549C577.778 626.447 577.271 626.821 576.471 627.523ZM581.403 632.308L580.629 632.915C579.975 633.453 579.607 634.067 579.524 634.758C579.441 635.449 579.668 636.121 580.301 636.8C580.839 637.453 581.453 637.821 582.049 637.879C582.644 637.937 583.342 637.614 584.236 636.937C584.623 636.634 584.915 636.304 585.302 636.001L585.569 635.767L582.392 631.656C582.056 631.77 581.79 632.004 581.403 632.308Z" fill="#313131"/>
<g style="mix-blend-mode:overlay">
<circle cx="172.196" cy="166.395" r="2" fill="#313131"/>
</g>
<g style="mix-blend-mode:overlay">
<circle cx="576.695" cy="140.765" r="2" fill="#313131"/>
</g>
</g>
</svg>
